<?xml version="1.0" standalone="no"?>
<!DOCTYPE svg PUBLIC "-//W3C//DTD SVG 20010904//EN"
 "http://www.w3.org/TR/2001/REC-SVG-20010904/DTD/svg10.dtd">
<svg version="1.0" xmlns="http://www.w3.org/2000/svg"
 width="1082.000000pt" height="582.000000pt" viewBox="0 0 1082.000000 582.000000"
 preserveAspectRatio="xMidYMid meet">

<g transform="translate(0.000000,582.000000) scale(0.100000,-0.100000)"
fill="#000000" stroke="none">
<path d="M1354 5285 c0 -206 1 -211 3 -48 l3 182 697 1 c383 0 699 3 702 5 2
3 -295 5 -662 5 -366 0 -668 4 -671 8 -3 5 -19 7 -35 4 -28 -4 -30 -2 -34 34
-2 22 -3 -64 -3 -191z"/>
<path d="M4372 5479 c-2 -35 -3 -36 -48 -43 -26 -3 -342 -6 -702 -6 -360 0
-653 -2 -651 -5 3 -2 319 -5 702 -5 l697 -1 2 -177 3 -177 5 180 c3 99 2 200
-1 225 -6 43 -6 43 -7 9z"/>
<path d="M2863 5463 c21 -6 22 -26 2 -43 -22 -18 -18 -30 8 -29 18 1 18 2 4 6
-17 4 -18 6 -2 24 20 22 13 49 -12 48 -17 -1 -17 -2 0 -6z"/>
<path d="M2904 5446 c-8 -35 2 -58 23 -54 25 5 25 71 1 76 -12 2 -19 -5 -24
-22z m36 -16 c0 -16 -5 -30 -10 -30 -14 0 -24 26 -16 45 10 26 26 16 26 -15z"/>
<path d="M2798 5453 c6 -2 12 -15 12 -28 0 -13 -6 -26 -12 -28 -7 -3 -4 -6 7
-6 18 -1 20 4 17 34 -3 25 -9 35 -21 34 -10 0 -11 -2 -3 -6z"/>
<path d="M1350 4820 l0 -210 -84 -55 c-61 -39 -96 -55 -127 -58 l-44 -4 45 -1
c39 -2 55 5 120 48 41 27 78 50 83 50 4 0 7 -198 7 -440 l0 -440 565 0 565 0
0 -1575 0 -1575 65 0 c62 0 65 -1 55 -19 -15 -30 -13 -41 19 -71 26 -24 30
-35 33 -91 l3 -64 43 -3 42 -3 0 -48 c0 -61 20 -81 83 -81 44 0 46 -1 50 -32
l4 -33 1 33 c2 31 3 32 50 32 63 0 82 20 82 83 l0 46 43 3 42 3 5 67 c4 57 9
69 33 88 28 23 35 58 15 78 -9 9 1 12 45 12 l57 0 0 823 c0 452 1 1160 3 1572
l2 750 568 3 567 2 0 660 0 660 -1520 0 -1520 0 0 -210z m3020 -400 l0 -600
-619 0 -620 0 -3 27 c-2 22 -12 29 -58 45 -30 10 -84 21 -120 25 -41 3 -70 11
-77 21 -12 14 -13 14 -13 0 0 -11 -16 -16 -67 -21 -38 -3 -93 -14 -123 -25
-46 -16 -56 -23 -58 -45 l-3 -27 -625 0 -624 0 0 393 0 392 48 30 c26 16 51
29 55 27 4 -1 17 7 29 17 20 20 21 20 50 -2 59 -44 146 -19 175 50 21 51 10
95 -33 132 -84 74 -206 7 -190 -105 5 -37 3 -46 -12 -51 -9 -4 -27 -16 -39
-27 -11 -12 -35 -29 -52 -39 l-31 -18 0 194 c0 106 3 197 7 200 3 4 681 7
1505 7 l1498 0 0 -600z m-2722 449 c76 -26 88 -136 21 -183 -54 -38 -147 -3
-163 60 -10 40 12 93 48 115 36 22 51 23 94 8z m1212 -979 c0 -19 -6 -20 -102
-19 -57 0 -96 3 -88 6 41 17 110 31 148 32 36 1 42 -2 42 -19z m180 -4 c45
-14 45 -14 -60 -13 -94 2 -105 4 -108 21 -4 18 1 19 59 13 35 -4 84 -13 109
-21z m-180 -46 c0 -19 -7 -20 -120 -20 -113 0 -120 1 -120 20 0 19 7 20 120
20 113 0 120 -1 120 -20z m250 0 c0 -19 -7 -20 -120 -20 -113 0 -120 1 -120
20 0 19 7 20 120 20 113 0 120 -1 120 -20z m-249 -72 l2 -43 6 40 6 40 748 3
747 2 0 -45 0 -45 -1505 0 -1505 0 0 45 0 45 750 0 750 0 1 -42z m379 -808 l0
-750 -370 0 -370 0 0 750 0 750 370 0 370 0 0 -750z m0 -1575 l0 -815 -180 0
-180 0 -2 33 -1 32 -4 -32 -4 -33 -185 0 -184 0 0 815 0 815 370 0 370 0 0
-815z m-370 -886 l0 -62 -42 8 c-47 8 -59 8 -103 0 -21 -4 -42 1 -70 18 -32
18 -40 28 -40 52 0 36 12 39 158 43 l97 2 0 -61z m266 40 c25 -25 9 -55 -42
-80 -39 -18 -51 -20 -80 -11 -22 7 -46 7 -67 1 -62 -18 -67 -14 -67 44 0 30 2
56 6 59 3 3 56 5 119 4 91 -1 118 -4 131 -17z m-378 -159 c-3 -49 -6 -55 -27
-58 -12 -2 -34 -1 -47 2 -22 6 -24 12 -24 59 l0 52 50 0 51 0 -3 -55z m93 50
c16 0 19 -8 19 -55 0 -60 -3 -62 -69 -49 -30 6 -31 8 -31 62 l0 55 31 -7 c17
-3 40 -6 50 -6z m129 -44 c0 -58 -8 -66 -72 -66 -27 0 -28 2 -28 54 l0 55 38
4 c20 2 43 4 50 5 8 1 12 -15 12 -52z m110 -3 c0 -48 -2 -53 -25 -59 -14 -3
-36 -3 -50 0 -23 6 -25 11 -25 59 l0 52 50 0 50 0 0 -52z m-220 -118 l0 -45
-55 0 -55 0 0 45 0 45 55 0 55 0 0 -45z m128 -2 l3 -43 -60 0 -61 0 0 38 c0
21 3 42 7 46 4 4 30 6 58 4 l50 -3 3 -42z m-128 -63 c0 -5 -20 -10 -44 -10
-25 0 -48 5 -51 10 -4 6 13 10 44 10 28 0 51 -4 51 -10z m105 0 c-3 -5 -24
-10 -46 -10 -21 0 -39 5 -39 10 0 6 21 10 46 10 27 0 43 -4 39 -10z"/>
<path d="M1602 4950 c0 -14 2 -19 5 -12 2 6 2 18 0 25 -3 6 -5 1 -5 -13z"/>
<path d="M2232 4950 c0 -14 2 -19 5 -12 2 6 2 18 0 25 -3 6 -5 1 -5 -13z"/>
<path d="M2862 4950 c0 -14 2 -19 5 -12 2 6 2 18 0 25 -3 6 -5 1 -5 -13z"/>
<path d="M3492 4950 c0 -14 2 -19 5 -12 2 6 2 18 0 25 -3 6 -5 1 -5 -13z"/>
<path d="M4122 4950 c0 -14 2 -19 5 -12 2 6 2 18 0 25 -3 6 -5 1 -5 -13z"/>
<path d="M2178 4874 c-34 -18 -58 -62 -58 -108 0 -45 39 -92 90 -107 83 -25
166 58 141 141 -23 77 -104 112 -173 74z m135 -34 c39 -43 38 -101 -2 -141
-81 -81 -219 18 -167 120 35 67 118 77 169 21z"/>
<path d="M2232 4818 c-2 -35 -4 -37 -39 -41 l-38 -4 38 -1 c36 -2 37 -3 38
-44 l2 -43 6 40 c6 38 8 40 46 46 l40 6 -42 2 c-41 1 -42 2 -46 39 l-4 37 -1
-37z"/>
<path d="M2804 4871 c-86 -52 -63 -182 37 -212 82 -25 165 59 140 141 -24 80
-108 113 -177 71z m99 0 c72 -28 92 -118 38 -172 -81 -81 -219 18 -167 120 26
50 78 71 129 52z"/>
<path d="M2862 4818 c-2 -35 -4 -37 -39 -41 l-38 -4 38 -1 c36 -2 37 -3 38
-44 l2 -43 6 40 c6 38 8 40 46 46 l40 6 -42 2 c-41 1 -42 2 -46 39 l-4 37 -1
-37z"/>
<path d="M3434 4871 c-59 -36 -70 -127 -22 -178 76 -81 203 -28 203 85 0 38
-5 48 -37 78 -44 40 -94 45 -144 15z m104 -2 c69 -24 87 -116 33 -170 -23 -22
-39 -29 -69 -29 -47 0 -96 35 -106 76 -10 40 12 93 48 115 36 22 51 23 94 8z"/>
<path d="M3492 4818 c-2 -35 -4 -37 -39 -41 l-38 -4 37 -1 c36 -2 37 -3 41
-44 l4 -43 1 42 c2 42 2 42 45 46 l42 4 -42 1 c-41 2 -42 3 -46 40 l-4 37 -1
-37z"/>
<path d="M4068 4874 c-34 -18 -58 -62 -58 -108 0 -45 39 -92 90 -107 83 -25
166 58 141 141 -23 77 -104 112 -173 74z m135 -34 c61 -68 17 -170 -75 -170
-46 1 -64 10 -91 50 -21 30 -22 62 -2 100 34 66 117 76 168 20z"/>
<path d="M4122 4818 c-2 -35 -4 -37 -39 -41 l-38 -4 37 -1 c36 -2 37 -3 41
-44 l4 -43 1 42 c2 42 2 42 45 46 l42 4 -42 1 c-41 2 -42 3 -46 40 l-4 37 -1
-37z"/>
<path d="M1423 4773 c9 -2 23 -2 30 0 6 3 -1 5 -18 5 -16 0 -22 -2 -12 -5z"/>
<path d="M1768 4773 c6 -2 18 -2 25 0 6 3 1 5 -13 5 -14 0 -19 -2 -12 -5z"/>
<path d="M2053 4773 c9 -2 23 -2 30 0 6 3 -1 5 -18 5 -16 0 -22 -2 -12 -5z"/>
<path d="M2398 4773 c6 -2 18 -2 25 0 6 3 1 5 -13 5 -14 0 -19 -2 -12 -5z"/>
<path d="M2678 4773 c6 -2 18 -2 25 0 6 3 1 5 -13 5 -14 0 -19 -2 -12 -5z"/>
<path d="M3028 4773 c6 -2 18 -2 25 0 6 3 1 5 -13 5 -14 0 -19 -2 -12 -5z"/>
<path d="M3308 4773 c6 -2 18 -2 25 0 6 3 1 5 -13 5 -14 0 -19 -2 -12 -5z"/>
<path d="M3658 4773 c6 -2 18 -2 25 0 6 3 1 5 -13 5 -14 0 -19 -2 -12 -5z"/>
<path d="M3943 4773 c9 -2 23 -2 30 0 6 3 -1 5 -18 5 -16 0 -22 -2 -12 -5z"/>
<path d="M4288 4773 c6 -2 18 -2 25 0 6 3 1 5 -13 5 -14 0 -19 -2 -12 -5z"/>
<path d="M1602 4600 c0 -14 2 -19 5 -12 2 6 2 18 0 25 -3 6 -5 1 -5 -13z"/>
<path d="M2232 4600 c0 -14 2 -19 5 -12 2 6 2 18 0 25 -3 6 -5 1 -5 -13z"/>
<path d="M2862 4600 c0 -14 2 -19 5 -12 2 6 2 18 0 25 -3 6 -5 1 -5 -13z"/>
<path d="M3492 4600 c0 -14 2 -19 5 -12 2 6 2 18 0 25 -3 6 -5 1 -5 -13z"/>
<path d="M4122 4600 c0 -14 2 -19 5 -12 2 6 2 18 0 25 -3 6 -5 1 -5 -13z"/>
<path d="M1922 4400 c0 -14 2 -19 5 -12 2 6 2 18 0 25 -3 6 -5 1 -5 -13z"/>
<path d="M2552 4400 c0 -14 2 -19 5 -12 2 6 2 18 0 25 -3 6 -5 1 -5 -13z"/>
<path d="M3182 4400 c0 -14 2 -19 5 -12 2 6 2 18 0 25 -3 6 -5 1 -5 -13z"/>
<path d="M3812 4400 c0 -14 2 -19 5 -12 2 6 2 18 0 25 -3 6 -5 1 -5 -13z"/>
<path d="M1874 4331 c-75 -34 -90 -127 -30 -187 29 -29 41 -34 81 -34 40 0 52
5 81 34 29 29 34 41 34 79 0 53 -27 93 -76 113 -41 17 -40 17 -90 -5z m105
-15 c31 -17 51 -54 51 -97 0 -46 -56 -99 -105 -99 -29 0 -45 8 -71 34 -88 88
13 219 125 162z"/>
<path d="M1922 4273 c-2 -42 -2 -42 -44 -46 l-43 -4 42 -1 c42 -2 42 -2 46
-44 l4 -43 1 42 c2 42 2 42 45 46 l42 4 -42 1 c-42 2 -42 2 -46 45 l-4 42 -1
-42z"/>
<path d="M2523 4343 c-33 -6 -79 -57 -87 -93 -8 -40 13 -90 50 -119 40 -31
114 -25 151 12 37 37 43 111 12 151 -20 26 -77 58 -96 55 -4 -1 -18 -4 -30 -6z
m104 -48 c32 -32 35 -39 30 -78 -14 -102 -147 -133 -193 -46 -39 77 5 159 86
159 35 0 48 -6 77 -35z"/>
<path d="M2552 4273 c-2 -42 -2 -42 -44 -46 l-43 -4 42 -1 c42 -2 42 -2 46
-44 l4 -43 1 42 c2 42 2 42 45 46 l42 4 -42 1 c-42 2 -42 2 -46 45 l-4 42 -1
-42z"/>
<path d="M3134 4331 c-53 -24 -81 -84 -64 -137 17 -51 63 -84 117 -84 38 0 50
5 79 34 29 29 34 41 34 79 0 53 -27 93 -76 113 -41 17 -40 17 -90 -5z m122
-35 c26 -26 34 -42 34 -71 0 -29 -8 -45 -34 -71 -26 -26 -42 -34 -71 -34 -29
0 -45 8 -71 34 -47 47 -48 101 -3 145 44 45 98 44 145 -3z"/>
<path d="M3182 4273 c-2 -42 -2 -42 -44 -46 l-43 -4 42 -1 c41 -2 42 -3 46
-39 l4 -38 1 37 c2 35 4 37 40 41 l37 4 -37 1 c-36 2 -37 3 -41 45 l-4 42 -1
-42z"/>
<path d="M3764 4331 c-114 -52 -74 -221 53 -221 38 0 50 5 79 34 29 29 34 41
34 79 0 53 -27 93 -76 113 -41 17 -40 17 -90 -5z m105 -15 c31 -17 51 -54 51
-97 0 -46 -56 -99 -105 -99 -29 0 -45 8 -71 34 -89 89 12 220 125 162z"/>
<path d="M3812 4273 c-2 -42 -2 -42 -44 -46 l-43 -4 42 -1 c42 -2 42 -2 46
-44 l4 -43 1 42 c2 41 3 42 40 46 l37 4 -37 1 c-36 2 -37 3 -41 45 l-4 42 -1
-42z"/>
<path d="M1738 4223 c6 -2 18 -2 25 0 6 3 1 5 -13 5 -14 0 -19 -2 -12 -5z"/>
<path d="M2088 4223 c6 -2 18 -2 25 0 6 3 1 5 -13 5 -14 0 -19 -2 -12 -5z"/>
<path d="M2368 4223 c6 -2 18 -2 25 0 6 3 1 5 -13 5 -14 0 -19 -2 -12 -5z"/>
<path d="M2718 4223 c6 -2 18 -2 25 0 6 3 1 5 -13 5 -14 0 -19 -2 -12 -5z"/>
<path d="M2998 4223 c6 -2 18 -2 25 0 6 3 1 5 -13 5 -14 0 -19 -2 -12 -5z"/>
<path d="M3348 4223 c6 -2 18 -2 25 0 6 3 1 5 -13 5 -14 0 -19 -2 -12 -5z"/>
<path d="M3628 4223 c6 -2 18 -2 25 0 6 3 1 5 -13 5 -14 0 -19 -2 -12 -5z"/>
<path d="M3978 4223 c6 -2 18 -2 25 0 6 3 1 5 -13 5 -14 0 -19 -2 -12 -5z"/>
<path d="M1922 4050 c0 -14 2 -19 5 -12 2 6 2 18 0 25 -3 6 -5 1 -5 -13z"/>
<path d="M2552 4050 c0 -14 2 -19 5 -12 2 6 2 18 0 25 -3 6 -5 1 -5 -13z"/>
<path d="M3182 4050 c0 -14 2 -19 5 -12 2 6 2 18 0 25 -3 6 -5 1 -5 -13z"/>
<path d="M3812 4050 c0 -14 2 -19 5 -12 2 6 2 18 0 25 -3 6 -5 1 -5 -13z"/>
<path d="M1602 4818 c-2 -35 -4 -37 -39 -41 l-38 -4 37 -1 c36 -2 37 -3 41
-44 l4 -43 1 42 c2 42 2 42 45 46 l42 4 -42 1 c-41 2 -42 3 -46 40 l-4 37 -1
-37z"/>
<path d="M2862 2100 c0 -19 2 -27 5 -17 2 9 2 25 0 35 -3 9 -5 1 -5 -18z"/>
<path d="M2815 2046 c-39 -18 -74 -56 -84 -92 -6 -24 -14 -30 -47 -35 l-39 -6
38 -2 37 -1 0 -372 c0 -346 2 -376 20 -415 47 -104 187 -113 251 -17 18 27 19
54 19 439 0 389 -1 412 -20 442 -10 18 -29 39 -42 47 -34 22 -98 28 -133 12z
m129 -27 c56 -44 56 -44 56 -476 0 -377 -1 -400 -20 -430 -38 -63 -120 -81
-181 -40 -59 40 -59 35 -59 477 0 384 1 407 19 434 27 40 57 55 112 56 32 0
54 -6 73 -21z"/>
<path d="M2860 1961 c0 -39 -1 -40 -37 -44 l-38 -4 38 -1 37 -2 2 -122 c1 -68
3 -105 5 -83 1 22 5 77 9 122 l6 82 36 4 37 4 -37 1 c-36 2 -38 4 -38 36 0 19
-4 38 -10 41 -6 4 -10 -10 -10 -34z"/>
<path d="M2863 1550 c0 -30 2 -43 4 -27 2 15 2 39 0 55 -2 15 -4 2 -4 -28z"/>
<path d="M2862 1308 l-2 -117 -37 -4 -38 -4 38 -1 c36 -2 37 -3 37 -42 0 -22
5 -40 10 -40 6 0 10 18 10 39 0 39 1 40 38 44 l37 4 -37 1 -36 2 -6 83 c-11
149 -13 153 -14 35z"/>
<path d="M3038 1913 c12 -2 30 -2 40 0 9 3 -1 5 -23 4 -22 0 -30 -2 -17 -4z"/>
<path d="M2663 1183 c9 -2 25 -2 35 0 9 3 1 5 -18 5 -19 0 -27 -2 -17 -5z"/>
<path d="M3038 1183 c12 -2 30 -2 40 0 9 3 -1 5 -23 4 -22 0 -30 -2 -17 -4z"/>
<path d="M2863 995 c0 -22 2 -30 4 -17 2 12 2 30 0 40 -3 9 -5 -1 -4 -23z"/>
<path d="M9600 4466 c0 -335 -4 -575 -10 -590 -13 -35 -59 -56 -124 -56 -52 0
-55 1 -58 28 -3 23 -11 30 -58 45 -30 10 -85 21 -122 24 -66 6 -67 6 -71 37
l-4 31 -1 -32 c-2 -33 -2 -33 -54 -34 -29 0 -87 -10 -128 -22 -68 -20 -75 -25
-78 -49 -3 -21 -9 -28 -25 -28 -20 0 -22 -4 -19 -50 l4 -50 -1574 -2 c-865 -1
-1554 -3 -1531 -5 l42 -4 1 -712 c0 -391 3 -713 5 -716 4 -3 11 1268 8 1397
l0 32 1310 0 1311 0 -47 -29 c-47 -31 -89 -83 -106 -136 -6 -16 -72 -615 -146
-1330 -75 -714 -141 -1310 -148 -1324 -7 -13 -25 -34 -40 -45 -26 -19 -42 -21
-185 -21 l-157 0 0 24 c0 20 -9 27 -52 42 -28 9 -84 22 -124 29 -40 6 -76 16
-80 22 -5 7 -8 7 -10 0 -2 -6 -35 -16 -74 -22 -38 -6 -94 -18 -122 -27 -48
-15 -53 -20 -53 -45 l0 -28 -125 0 -125 0 0 -60 0 -60 -255 0 c-242 0 -256 1
-275 20 -20 20 -20 33 -20 755 l0 735 -70 0 -70 0 0 -727 c0 -495 4 -741 11
-768 14 -49 51 -101 93 -126 l31 -19 -235 0 -235 0 -1 28 c0 15 -1 353 -2 751
-1 398 -4 722 -7 720 -2 -3 -5 -341 -5 -751 l-1 -747 -42 -4 c-23 -2 265 -4
641 -5 l683 -2 -11 -20 c-16 -31 -3 -58 41 -86 38 -24 39 -25 39 -84 0 -60 0
-60 30 -60 29 0 30 -1 30 -48 0 -62 20 -82 83 -82 39 0 46 -3 50 -22 l4 -23 2
23 c1 20 6 22 49 22 63 0 82 20 82 83 0 46 0 47 33 47 l32 0 -3 58 -4 57 46
32 c47 34 59 66 34 91 -9 9 10 12 85 12 l97 0 0 59 0 58 93 7 c50 3 632 6
1291 6 659 0 1201 2 1204 5 3 3 -13 5 -36 5 l-41 0 -1 677 c0 372 -3 679 -5
682 -3 2 -6 -290 -7 -650 -1 -360 -2 -666 -2 -681 l-1 -28 -1159 0 -1160 0 47
29 c54 35 92 88 107 151 6 25 69 608 140 1295 71 688 132 1270 136 1294 4 32
15 54 39 78 l33 33 206 0 206 0 -6 -25 c-8 -32 15 -68 55 -85 30 -12 31 -14
31 -76 l0 -64 30 0 30 0 0 -63 c0 -36 5 -68 12 -75 7 -7 36 -12 64 -12 47 0
53 -3 57 -22 l4 -23 2 23 c1 19 6 22 49 22 69 1 82 15 82 89 l0 61 33 0 32 0
-3 62 -3 63 40 22 c44 25 58 52 41 83 -11 20 -9 20 195 20 l205 0 0 65 0 65
229 0 230 0 1 -717 c0 -394 3 -719 5 -722 4 -3 11 1273 9 1406 -1 30 1 32 40
36 23 2 -139 4 -358 5 l-399 2 40 29 c41 30 80 96 83 141 1 14 2 276 1 583
l-1 557 -55 0 -55 0 0 -564z m100 -19 l0 -573 -22 -44 c-14 -26 -41 -57 -66
-75 l-44 -30 -204 -3 -204 -3 -2 33 -1 33 -4 -32 -4 -33 -145 0 -144 0 0 45 0
45 341 0 341 0 34 34 34 34 0 564 c0 311 3 568 7 571 3 4 24 7 45 7 l38 0 0
-573z m-550 -557 c0 -19 -7 -20 -102 -20 -56 0 -98 3 -95 6 11 11 110 32 155
33 36 1 42 -2 42 -19z m175 -4 c40 -15 40 -15 -62 -15 -99 -1 -103 0 -103 20
0 21 3 22 63 16 34 -3 80 -13 102 -21z m75 -46 c0 -19 -7 -20 -245 -20 -238 0
-245 1 -245 20 0 19 7 20 245 20 238 0 245 -1 245 -20z m-249 -152 l2 -23 4
23 4 22 327 -2 327 -3 3 -52 3 -52 -674 -3 -674 -3 -36 -28 c-23 -17 -40 -41
-47 -65 -5 -20 -69 -604 -140 -1297 -72 -693 -135 -1284 -141 -1313 -14 -71
-60 -130 -128 -164 l-55 -28 -293 0 -293 0 -1 28 -2 27 -4 -28 -4 -27 -240 0
-239 0 0 55 0 55 523 0 c477 0 525 2 557 18 70 35 59 -36 206 1374 74 711 138
1309 144 1329 21 76 98 152 171 169 19 4 184 8 367 9 l332 1 1 -22z m-1 -157
c0 -55 -8 -61 -77 -63 -135 -2 -213 37 -183 92 10 18 21 20 135 20 l125 0 0
-49z m258 37 c20 -20 14 -55 -14 -73 -37 -24 -164 -36 -215 -20 -15 5 -19 16
-19 56 l0 49 118 0 c78 0 122 -4 130 -12z m-260 -163 l-3 -50 -40 -5 c-22 -3
-61 -4 -87 -2 l-48 4 0 52 0 52 90 0 91 0 -3 -51z m190 1 l-3 -51 -40 -5 c-22
-3 -61 -4 -87 -2 l-48 4 0 52 0 52 90 0 91 1 -3 -51z m-188 -131 l0 -55 -60 0
-60 0 0 55 0 55 60 0 60 0 0 -55z m120 0 l0 -55 -55 0 -55 0 0 55 0 55 55 0
55 0 0 -55z m-142 -82 c-16 -2 -40 -2 -55 0 -16 2 -3 4 27 4 30 0 43 -2 28 -4z
m105 0 c-13 -2 -35 -2 -50 0 -16 2 -5 4 22 4 28 0 40 -2 28 -4z m-2965 -1730
l2 -731 31 -26 31 -26 499 0 c468 0 499 -1 500 -17 1 -17 2 -17 6 0 4 15 23
17 224 17 l219 0 0 -55 0 -55 -722 0 c-474 0 -736 4 -761 11 -21 5 -54 24 -74
42 -71 63 -68 21 -71 826 -1 399 0 731 3 738 3 10 20 13 57 11 l53 -3 3 -732z
m1062 -573 c0 -19 -7 -20 -102 -20 -56 0 -98 3 -95 7 13 12 102 32 150 32 41
1 47 -2 47 -19z m181 -3 c33 -15 31 -15 -68 -16 -99 -1 -103 0 -103 20 0 21 3
22 68 16 38 -3 84 -12 103 -20z m-181 -47 c0 -19 -7 -20 -120 -20 -113 0 -120
1 -120 20 0 19 7 20 120 20 113 0 120 -1 120 -20z m250 0 c0 -19 -7 -20 -120
-20 -113 0 -120 1 -120 20 0 19 7 20 120 20 113 0 120 -1 120 -20z m-250 -335
l0 -54 -44 -6 c-25 -4 -64 -3 -88 1 -24 5 -51 8 -60 7 -9 -2 -31 11 -48 27
-26 24 -29 32 -21 49 13 23 32 26 164 28 l97 1 0 -53z m246 44 c40 -15 42 -39
4 -70 -18 -15 -40 -27 -49 -27 -9 0 -38 -3 -66 -7 -27 -4 -66 -3 -85 2 -31 8
-35 13 -38 47 -2 21 -1 44 1 51 6 15 196 19 233 4z m-246 -165 c0 -58 -8 -64
-90 -64 -81 0 -90 6 -90 59 0 26 2 50 4 52 2 2 43 4 90 4 l86 0 0 -51z m190 0
c0 -58 -8 -64 -90 -64 -82 0 -90 6 -90 64 l0 51 90 0 90 0 0 -51z m-190 -119
l0 -45 -55 0 -55 0 0 45 0 45 55 0 55 0 0 -45z m120 0 l0 -45 -55 0 -55 0 0
45 0 45 55 0 55 0 0 -45z m-120 -65 c0 -5 -20 -10 -44 -10 -25 0 -48 5 -51 10
-4 6 13 10 44 10 28 0 51 -4 51 -10z m105 0 c-3 -5 -26 -10 -51 -10 -24 0 -44
5 -44 10 0 6 23 10 51 10 31 0 48 -4 44 -10z"/>
<path d="M992 4534 c-7 -7 -11 -15 -10 -16 6 -8 -22 -42 -28 -35 -5 4 -3 17 4
27 7 11 8 20 3 20 -15 0 -24 -40 -12 -54 6 -7 8 -15 6 -18 -3 -3 6 -3 19 -1
36 7 48 26 39 61 -7 25 -10 28 -21 16z m16 -41 c-2 -10 -11 -19 -21 -21 -16
-3 -17 -1 -7 17 13 25 33 28 28 4z"/>
<path d="M1037 4533 c-13 -12 -7 -43 8 -43 21 0 19 -18 -2 -23 -17 -4 -17 -5
-1 -6 22 -1 41 34 33 59 -6 20 -25 26 -38 13z m31 -21 c2 -7 -3 -12 -12 -12
-9 0 -16 7 -16 16 0 17 22 14 28 -4z"/>
<path d="M5761 2243 c-1 -17 5 -23 19 -23 12 0 20 7 20 16 0 9 6 14 13 11 6
-2 11 -10 9 -16 -1 -7 2 -10 7 -6 6 3 8 12 4 20 -7 20 -43 19 -43 0 0 -21 -18
-19 -23 3 -4 13 -5 11 -6 -5z"/>
<path d="M10254 2228 c-4 -6 1 -17 10 -23 14 -11 15 -13 1 -19 -8 -3 -14 -13
-14 -23 1 -17 2 -17 6 0 6 21 26 22 43 2 18 -22 30 -18 29 8 0 19 -1 20 -8 4
-6 -17 -8 -17 -19 -4 -11 13 -10 16 7 22 12 3 21 15 21 26 0 15 -7 19 -34 19
-19 0 -38 -5 -42 -12z m66 -7 c0 -12 -21 -19 -42 -13 -29 7 -21 22 12 22 17 0
30 -4 30 -9z"/>
<path d="M5757 2185 c-4 -8 -1 -17 5 -21 6 -4 8 -3 4 4 -11 18 14 25 33 8 24
-22 31 -20 31 7 0 14 -3 18 -8 10 -5 -8 -13 -9 -22 -3 -22 14 -37 12 -43 -5z"/>
<path d="M5760 2122 c0 -5 16 -8 35 -8 46 1 46 16 0 16 -19 0 -35 -4 -35 -8z"/>
<path d="M10293 2123 c-22 -3 -33 -10 -33 -21 0 -12 3 -13 12 -4 16 16 45 15
51 0 3 -7 6 -3 6 10 1 12 0 21 -1 20 -2 0 -18 -3 -35 -5z"/>
</g>
</svg>
