<?xml version="1.0" standalone="no"?>
<!DOCTYPE svg PUBLIC "-//W3C//DTD SVG 20010904//EN"
 "http://www.w3.org/TR/2001/REC-SVG-20010904/DTD/svg10.dtd">
<svg version="1.0" xmlns="http://www.w3.org/2000/svg"
 width="648.000000pt" height="314.000000pt" viewBox="0 0 648.000000 314.000000"
 preserveAspectRatio="xMidYMid meet">

<g transform="translate(0.000000,314.000000) scale(0.100000,-0.100000)"
fill="#000000" stroke="none">
<path d="M4320 2680 c-11 -11 -21 -35 -21 -52 -5 -100 13 -138 62 -138 41 0
59 32 59 107 0 68 -20 103 -60 103 -11 0 -29 -9 -40 -20z m73 -52 c13 -54 -3
-112 -31 -116 -25 -4 -42 28 -42 78 0 83 56 112 73 38z"/>
<path d="M3940 2590 c0 -82 3 -100 15 -100 12 0 15 16 16 78 l1 77 21 -47 c12
-26 27 -48 33 -48 6 0 22 24 35 53 l24 52 3 -82 c4 -118 22 -104 22 17 0 90
-2 100 -18 100 -12 0 -26 -17 -41 -52 l-23 -53 -25 53 c-17 36 -30 52 -44 52
-17 0 -19 -8 -19 -100z"/>
<path d="M4200 2681 c0 -5 -10 -12 -22 -16 l-23 -8 23 -4 c20 -4 22 -10 22
-74 0 -62 -2 -69 -20 -69 -11 0 -20 -4 -20 -10 0 -5 23 -10 50 -10 28 0 50 5
50 10 0 6 -7 10 -15 10 -12 0 -15 17 -15 90 0 73 -3 90 -15 90 -8 0 -15 -4
-15 -9z"/>
<path d="M3650 2578 c-12 -13 -101 -116 -198 -229 l-175 -207 -46 33 c-102 72
-236 123 -354 134 l-72 6 -5 105 -6 105 -4 -105 -5 -105 -71 -7 c-92 -9 -213
-48 -294 -95 -94 -55 -227 -191 -273 -280 -51 -98 -74 -168 -88 -269 l-12 -84
-99 0 c-59 0 -98 -4 -98 -10 0 -6 39 -10 98 -10 l99 0 12 -86 c20 -144 76
-273 162 -376 l40 -47 -66 -41 c-54 -35 -63 -45 -56 -59 8 -14 -27 -54 -197
-224 l-207 -207 -103 0 c-61 0 -102 -4 -102 -10 0 -6 41 -10 103 -10 l102 0
210 210 c165 165 213 208 230 204 16 -4 28 8 59 56 21 33 40 60 42 60 2 0 30
-21 62 -47 100 -82 242 -137 404 -158 l47 -6 4 -97 3 -97 2 97 2 97 48 6 c164
21 293 71 408 159 152 114 263 314 280 507 l7 69 93 0 c51 0 96 4 99 10 4 6
-29 10 -93 10 l-99 0 -7 72 c-8 87 -51 217 -97 295 -19 31 -60 85 -93 120
l-58 63 27 32 c16 18 102 120 193 226 l165 192 104 0 c67 0 102 4 98 10 -3 6
-50 10 -105 10 -90 0 -101 -2 -120 -22z m-862 -360 l-3 -61 -237 -137 c-130
-75 -244 -143 -253 -150 -12 -10 -15 -38 -15 -151 l0 -139 -98 0 -98 0 8 73
c9 90 45 199 90 275 54 93 189 221 285 270 86 44 209 80 281 81 l43 1 -3 -62z
m231 26 c76 -25 197 -90 220 -117 10 -12 1 -28 -49 -86 -61 -70 -62 -71 -88
-56 -15 8 -88 50 -162 93 l-135 78 -3 63 -3 64 72 -7 c39 -3 106 -18 148 -32z
m-165 -156 c16 -13 15 -14 -18 -10 -27 3 -36 9 -36 23 0 21 12 18 54 -13z
m-64 7 c0 -9 -9 -15 -24 -15 -13 0 -33 -3 -43 -6 -10 -3 -4 3 12 14 36 25 55
27 55 7z m545 -62 c96 -116 150 -245 170 -400 l7 -53 -101 0 -101 0 0 144 0
145 -80 43 c-44 24 -80 47 -80 51 0 12 111 137 121 137 5 0 33 -30 64 -67z
m-543 -31 l1 -37 4 35 c3 19 7 38 11 42 22 21 192 -33 263 -83 28 -19 29 -23
15 -37 -11 -12 -18 -13 -29 -4 -10 9 -21 -2 -51 -56 -21 -37 -39 -68 -40 -69
-1 -1 -24 9 -51 22 -59 30 -147 33 -220 8 -109 -37 -185 -161 -171 -276 19
-149 128 -247 276 -247 215 0 342 247 220 425 -17 24 -30 46 -30 49 0 3 25 24
55 47 45 34 54 45 49 64 -16 64 62 14 113 -73 31 -53 63 -152 63 -198 0 -32
-2 -34 -35 -34 -19 0 -35 -4 -35 -10 0 -5 16 -10 35 -10 33 0 35 -2 35 -34 0
-49 -35 -154 -69 -208 -67 -106 -184 -187 -308 -213 -95 -20 -93 -21 -95 28
-1 40 -1 40 -5 7 -3 -19 -8 -39 -12 -43 -13 -13 -148 20 -203 50 -118 64 -209
179 -243 308 -24 93 -21 105 20 105 19 0 35 5 35 10 0 6 -16 10 -35 10 -41 0
-44 12 -20 103 50 190 198 326 390 356 28 4 53 6 58 4 4 -2 8 -21 9 -41z
m-416 -145 c-14 -18 -32 -48 -40 -67 l-15 -35 -1 47 c0 41 3 48 33 67 45 29
52 26 23 -12z m892 -49 c2 -23 2 -41 -1 -38 -2 3 -18 32 -36 64 l-33 59 34
-21 c28 -18 34 -28 36 -64z m-345 -35 c23 -16 55 -48 72 -72 28 -40 30 -49 30
-131 0 -82 -2 -91 -30 -131 -17 -24 -53 -57 -80 -74 -42 -26 -58 -30 -119 -30
-60 0 -79 4 -118 28 -62 36 -94 80 -113 155 -15 57 -15 67 0 117 33 116 126
178 254 171 50 -3 72 -10 104 -33z m-641 -355 l3 -142 75 -44 c41 -25 138 -81
215 -124 230 -131 215 -118 215 -188 l0 -60 -43 0 c-24 0 -79 9 -121 20 -299
76 -508 322 -539 633 l-5 47 99 0 98 0 3 -142z m1223 85 c-35 -308 -244 -548
-539 -623 -44 -11 -99 -20 -123 -20 l-43 0 0 63 0 62 138 78 c75 43 189 108
252 145 l115 67 3 143 3 142 100 0 100 0 -6 -57z m-1121 -241 c-1 -2 -16 4
-33 13 -27 14 -31 21 -31 57 l0 42 33 -54 c19 -30 32 -56 31 -58z m886 70 c0
-32 -5 -41 -31 -56 -17 -10 -30 -15 -28 -10 14 31 53 104 56 104 2 0 3 -17 3
-38z m-480 -287 c0 -18 -8 -18 -40 0 l-25 14 33 1 c22 0 32 -5 32 -15z m50 0
c-32 -18 -40 -18 -40 0 0 10 10 15 33 15 l32 -1 -25 -14z"/>
<path d="M2792 1688 l-2 -108 -105 0 c-63 0 -105 -4 -105 -10 0 -6 42 -10 105
-10 l104 0 4 -107 3 -108 2 108 2 107 105 0 c63 0 105 4 105 10 0 6 -42 10
-105 10 l-104 0 -4 108 -3 107 -2 -107z"/>
<path d="M4629 2287 c-18 -12 -47 -46 -63 -74 l-30 -53 -170 -2 -169 -3 -13
-35 c-9 -24 -13 -111 -13 -287 l-1 -253 -95 0 c-57 0 -95 -4 -95 -10 0 -6 38
-10 95 -10 l95 0 0 -247 c0 -205 3 -255 16 -290 l17 -43 168 0 169 0 25 -49
c29 -58 71 -91 125 -98 51 -7 82 1 119 33 l31 26 0 -232 0 -233 -42 6 c-24 3
-62 9 -85 13 -36 6 -43 4 -43 -10 0 -14 -18 -16 -154 -16 -142 0 -154 1 -159
19 -4 18 -8 18 -63 5 -33 -7 -69 -14 -81 -14 l-23 0 -3 277 -2 278 -3 -282 -2
-283 -96 0 c-61 0 -93 -4 -89 -10 3 -5 46 -10 95 -10 l89 0 4 -103 3 -102 2
104 2 104 32 -7 c77 -15 138 -19 138 -7 0 18 306 15 313 -3 4 -11 16 -11 74 0
37 7 74 13 81 14 9 0 13 -28 14 -102 3 -127 14 546 16 960 l2 302 94 0 c53 0
98 4 101 10 4 6 -30 10 -94 10 l-100 0 0 311 c0 293 -1 313 -20 345 -43 73
-144 97 -212 51z m156 -38 l35 -31 0 -319 0 -319 -151 0 -151 0 7 68 c3 37 13
100 21 140 14 65 14 77 1 105 -23 48 -29 108 -18 159 13 56 83 181 118 208 40
31 95 27 138 -11z m-281 -146 c-5 -16 -9 -62 -9 -103 0 -41 4 -87 9 -102 l8
-28 -141 0 -141 0 -12 28 c-6 15 -11 61 -11 102 0 41 5 87 11 103 l12 27 141
0 141 0 -8 -27z m16 -265 c0 -2 -7 -38 -15 -81 -8 -43 -15 -101 -15 -128 l0
-49 -145 0 c-168 0 -152 -16 -135 135 16 138 -1 125 166 125 79 0 144 -1 144
-2z m-30 -327 c0 -27 7 -85 15 -128 8 -43 15 -79 15 -80 0 -2 -65 -3 -144 -3
-167 0 -150 -13 -166 125 -17 151 -33 135 135 135 l145 0 0 -49z m330 -23 c2
-423 -1 -553 -15 -575 -36 -54 -114 -65 -166 -24 -36 28 -107 168 -114 226 -5
38 -2 65 15 114 20 60 20 67 6 125 -8 33 -17 94 -21 134 l-6 72 150 0 151 0 0
-72z m-317 -255 c-15 -38 -15 -156 2 -195 7 -17 -4 -18 -138 -18 l-146 0 -11
57 c-12 58 -9 118 9 166 l11 27 144 0 145 0 -16 -37z"/>
<path d="M1119 626 c-10 -20 -18 -25 -49 -23 -48 2 -85 -23 -100 -68 -10 -31
-9 -41 9 -77 15 -31 18 -46 10 -60 -15 -28 0 -37 18 -10 12 17 25 22 58 22 36
0 48 5 69 31 32 37 34 86 6 122 -20 25 -20 28 -5 51 11 16 13 26 6 31 -6 3
-16 -5 -22 -19z m-60 -103 c-42 -75 -48 -81 -59 -63 -15 23 -12 73 6 98 11 16
25 22 50 22 l35 0 -32 -57z m71 18 c25 -48 -9 -111 -61 -111 -16 0 -29 3 -29
6 0 13 65 124 72 124 4 0 12 -9 18 -19z"/>
<path d="M1213 613 c-28 -11 -12 -29 22 -25 63 7 59 -41 -10 -116 -19 -22 -35
-45 -35 -51 0 -7 23 -11 65 -11 37 0 65 4 65 10 0 6 -23 10 -52 10 l-52 0 36
38 c62 64 72 98 38 132 -19 19 -50 24 -77 13z"/>
<path d="M1363 613 c-28 -11 -12 -29 22 -25 63 7 59 -41 -10 -116 -19 -22 -35
-45 -35 -51 0 -7 23 -11 65 -11 37 0 65 4 65 10 0 6 -23 10 -52 10 l-52 0 36
38 c62 64 72 98 38 132 -19 19 -50 24 -77 13z"/>
<path d="M3844 512 c-22 -14 -34 -52 -34 -104 0 -70 19 -98 66 -98 31 0 37 4
51 37 21 51 12 131 -18 156 -22 18 -47 22 -65 9z m60 -44 c9 -36 7 -97 -4
-119 -13 -23 -46 -25 -54 -3 -8 21 -8 129 1 137 15 16 51 6 57 -15z"/>
<path d="M3703 496 c-26 -12 -30 -26 -8 -26 12 0 15 -14 15 -70 0 -56 -3 -70
-15 -70 -8 0 -15 -4 -15 -10 0 -5 23 -10 50 -10 28 0 50 5 50 10 0 6 -9 10
-20 10 -19 0 -20 7 -20 90 0 50 -3 89 -7 89 -5 -1 -18 -6 -30 -13z"/>
</g>
</svg>
