<?xml version="1.0" standalone="no"?>
<!DOCTYPE svg PUBLIC "-//W3C//DTD SVG 20010904//EN"
 "http://www.w3.org/TR/2001/REC-SVG-20010904/DTD/svg10.dtd">
<svg version="1.0" xmlns="http://www.w3.org/2000/svg"
 width="746.000000pt" height="231.000000pt" viewBox="0 0 746.000000 231.000000"
 preserveAspectRatio="xMidYMid meet">

<g transform="translate(0.000000,231.000000) scale(0.100000,-0.100000)"
fill="#000000" stroke="none">
<path d="M5055 2250 c-3 -6 1 -7 9 -4 20 8 20 -6 1 -32 -20 -27 -19 -34 8 -33
16 1 17 3 5 6 -16 4 -16 6 -2 28 15 23 12 45 -6 45 -5 0 -12 -4 -15 -10z"/>
<path d="M5100 2240 c0 -11 7 -20 15 -20 21 0 19 -28 -2 -33 -17 -4 -17 -5 0
-6 25 -1 34 29 14 44 -22 16 -21 22 1 28 13 4 11 5 -5 6 -17 1 -23 -5 -23 -19z"/>
<path d="M5161 2208 c1 -30 2 -30 8 -8 3 14 13 25 21 25 8 0 18 -11 22 -25 6
-23 6 -22 5 5 -2 25 -7 31 -29 33 -26 3 -28 1 -27 -30z"/>
<path d="M5231 2208 c1 -30 2 -30 8 -8 3 14 13 25 21 25 8 0 18 -11 22 -25 6
-23 6 -22 5 5 -2 25 -7 31 -29 33 -26 3 -28 1 -27 -30z"/>
<path d="M3724 2050 c0 -133 1 -142 3 -43 l4 123 1434 0 1435 0 0 -269 0 -270
-32 -3 c-18 -2 -663 -1 -1433 2 l-1400 5 -3 143 -3 142 -422 0 c-404 0 -423
-1 -455 -20 -18 -11 -37 -32 -42 -46 -6 -15 -10 -284 -10 -695 0 -730 -1 -718
56 -739 15 -6 205 -10 452 -10 l427 0 -3 131 c-2 90 1 135 9 145 10 12 262 14
1758 16 960 0 1732 3 1715 5 -29 4 -32 8 -38 50 -8 60 -8 756 0 816 6 42 9 46
38 50 17 2 -112 5 -287 5 l-318 2 1 306 c1 168 -1 308 -4 312 -3 3 -6 -9 -6
-27 0 -30 -2 -33 -25 -29 -14 3 -28 1 -31 -3 -7 -11 -2741 -12 -2748 -1 -3 5
-18 7 -35 4 -27 -4 -30 -1 -34 29 -2 19 -4 -40 -3 -131z m-4 -555 l0 -365 -42
-2 -43 -1 43 -4 42 -4 0 -370 0 -369 -424 0 -425 0 -28 24 -28 24 0 344 0 343
50 6 50 6 -53 1 -53 2 3 339 3 339 24 26 24 26 429 0 428 0 0 -365z m2795 45
l0 -35 -1382 -3 -1383 -2 0 40 0 40 1383 -2 1382 -3 0 -35z m85 8 l0 -32 -30
29 c-16 16 -30 30 -30 32 0 2 14 3 30 3 27 0 30 -3 30 -32z m559 -423 l0 -455
-312 2 -312 3 -3 33 c-3 30 -1 32 29 32 l33 0 -30 -32 c-20 -24 -16 -21 14 7
l43 40 -1 405 c-1 223 -1 408 -1 413 1 4 122 7 271 7 l269 0 0 -455z m-594
405 l29 -30 -32 0 c-29 0 -32 3 -32 30 0 17 1 30 3 30 2 0 16 -13 32 -30z
m-45 -220 l0 -180 -47 -2 -48 -1 45 -6 45 -6 0 -180 0 -180 -1382 -3 -1383 -2
0 185 0 185 43 2 42 1 -42 4 -43 4 0 180 0 179 1385 0 1385 0 0 -180z m80 0
l0 -180 -35 0 -35 0 0 180 0 180 35 0 35 0 0 -180z m0 -375 l0 -185 -35 0 -35
0 0 185 0 185 35 0 35 0 0 -185z m-80 -230 l0 -35 -1385 0 -1385 0 0 35 0 35
1385 0 1385 0 0 -35z"/>
<path d="M2948 1123 c6 -2 18 -2 25 0 6 3 1 5 -13 5 -14 0 -19 -2 -12 -5z"/>
<path d="M3038 1123 c18 -2 45 -2 60 0 15 2 0 4 -33 4 -33 0 -45 -2 -27 -4z"/>
<path d="M3158 1123 c6 -2 18 -2 25 0 6 3 1 5 -13 5 -14 0 -19 -2 -12 -5z"/>
<path d="M3248 1123 c18 -2 45 -2 60 0 15 2 0 4 -33 4 -33 0 -45 -2 -27 -4z"/>
<path d="M3368 1123 c6 -2 18 -2 25 0 6 3 1 5 -13 5 -14 0 -19 -2 -12 -5z"/>
<path d="M3458 1123 c18 -2 45 -2 60 0 15 2 0 4 -33 4 -33 0 -45 -2 -27 -4z"/>
<path d="M3578 1123 c7 -3 16 -2 19 1 4 3 -2 6 -13 5 -11 0 -14 -3 -6 -6z"/>
<path d="M7056 1172 c-3 -3 -6 -12 -6 -19 0 -10 11 -13 38 -11 48 4 52 32 5
35 -17 0 -34 -1 -37 -5z m24 -12 c0 -5 -4 -10 -10 -10 -5 0 -10 5 -10 10 0 6
5 10 10 10 6 0 10 -4 10 -10z m40 0 c0 -5 -7 -10 -15 -10 -8 0 -15 5 -15 10 0
6 7 10 15 10 8 0 15 -4 15 -10z"/>
<path d="M6648 1123 c6 -2 18 -2 25 0 6 3 1 5 -13 5 -14 0 -19 -2 -12 -5z"/>
<path d="M6733 1123 c15 -2 39 -2 55 0 15 2 2 4 -28 4 -30 0 -43 -2 -27 -4z"/>
<path d="M7063 1109 c18 -10 18 -11 0 -25 -16 -12 -14 -13 22 -13 35 1 37 2
15 9 -14 4 -21 8 -16 9 12 1 -14 31 -28 31 -6 0 -3 -5 7 -11z"/>
<path d="M3868 1123 c6 -2 18 -2 25 0 6 3 1 5 -13 5 -14 0 -19 -2 -12 -5z"/>
<path d="M3953 1123 c15 -2 37 -2 50 0 12 2 0 4 -28 4 -27 0 -38 -2 -22 -4z"/>
<path d="M4058 1123 c6 -2 18 -2 25 0 6 3 1 5 -13 5 -14 0 -19 -2 -12 -5z"/>
<path d="M4143 1123 c15 -2 39 -2 55 0 15 2 2 4 -28 4 -30 0 -43 -2 -27 -4z"/>
<path d="M4258 1123 c6 -2 18 -2 25 0 6 3 1 5 -13 5 -14 0 -19 -2 -12 -5z"/>
<path d="M4343 1123 c15 -2 37 -2 50 0 12 2 0 4 -28 4 -27 0 -38 -2 -22 -4z"/>
<path d="M4448 1123 c6 -2 18 -2 25 0 6 3 1 5 -13 5 -14 0 -19 -2 -12 -5z"/>
<path d="M4533 1123 c15 -2 37 -2 50 0 12 2 0 4 -28 4 -27 0 -38 -2 -22 -4z"/>
<path d="M4638 1123 c6 -2 18 -2 25 0 6 3 1 5 -13 5 -14 0 -19 -2 -12 -5z"/>
<path d="M4723 1123 c15 -2 37 -2 50 0 12 2 0 4 -28 4 -27 0 -38 -2 -22 -4z"/>
<path d="M4828 1123 c6 -2 18 -2 25 0 6 3 1 5 -13 5 -14 0 -19 -2 -12 -5z"/>
<path d="M4913 1123 c15 -2 37 -2 50 0 12 2 0 4 -28 4 -27 0 -38 -2 -22 -4z"/>
<path d="M5028 1123 c7 -3 16 -2 19 1 4 3 -2 6 -13 5 -11 0 -14 -3 -6 -6z"/>
<path d="M5103 1123 c15 -2 39 -2 55 0 15 2 2 4 -28 4 -30 0 -43 -2 -27 -4z"/>
<path d="M5218 1123 c6 -2 18 -2 25 0 6 3 1 5 -13 5 -14 0 -19 -2 -12 -5z"/>
<path d="M5303 1123 c15 -2 37 -2 50 0 12 2 0 4 -28 4 -27 0 -38 -2 -22 -4z"/>
<path d="M5408 1123 c6 -2 18 -2 25 0 6 3 1 5 -13 5 -14 0 -19 -2 -12 -5z"/>
<path d="M5493 1123 c15 -2 37 -2 50 0 12 2 0 4 -28 4 -27 0 -38 -2 -22 -4z"/>
<path d="M5598 1123 c6 -2 18 -2 25 0 6 3 1 5 -13 5 -14 0 -19 -2 -12 -5z"/>
<path d="M5683 1123 c15 -2 37 -2 50 0 12 2 0 4 -28 4 -27 0 -38 -2 -22 -4z"/>
<path d="M5798 1123 c7 -3 16 -2 19 1 4 3 -2 6 -13 5 -11 0 -14 -3 -6 -6z"/>
<path d="M5873 1123 c15 -2 39 -2 55 0 15 2 2 4 -28 4 -30 0 -43 -2 -27 -4z"/>
<path d="M5988 1123 c6 -2 18 -2 25 0 6 3 1 5 -13 5 -14 0 -19 -2 -12 -5z"/>
<path d="M6073 1123 c15 -2 37 -2 50 0 12 2 0 4 -28 4 -27 0 -38 -2 -22 -4z"/>
<path d="M6178 1123 c6 -2 18 -2 25 0 6 3 1 5 -13 5 -14 0 -19 -2 -12 -5z"/>
<path d="M6263 1123 c15 -2 37 -2 50 0 12 2 0 4 -28 4 -27 0 -38 -2 -22 -4z"/>
<path d="M6368 1123 c6 -2 18 -2 25 0 6 3 1 5 -13 5 -14 0 -19 -2 -12 -5z"/>
<path d="M1331 1914 l-1 -31 -72 -6 c-91 -6 -213 -45 -298 -94 -37 -21 -105
-77 -156 -129 -79 -78 -98 -104 -137 -185 -43 -90 -69 -178 -82 -281 -5 -41
-9 -47 -33 -51 l-27 -4 28 -2 c15 0 27 -2 27 -4 0 -1 5 -40 10 -85 19 -152 84
-296 183 -407 l48 -54 -23 -33 c-13 -18 -107 -126 -211 -240 -103 -115 -187
-211 -187 -215 0 -10 20 12 195 207 81 91 169 187 196 213 l50 48 47 -34 c109
-80 244 -132 374 -144 66 -6 67 -6 71 -37 l4 -31 1 33 c2 31 3 32 50 32 67 0
193 34 277 74 234 111 394 340 422 601 7 62 10 70 33 76 l25 7 -27 1 c-26 1
-28 4 -28 44 0 24 -10 81 -21 128 -78 307 -343 539 -647 567 -75 7 -77 8 -83
37 l-7 30 -1 -31z m1 -206 l2 -163 3 163 3 162 49 0 c63 0 190 -33 268 -69
161 -76 306 -232 373 -401 23 -58 50 -183 50 -231 l0 -29 -157 -2 -158 -2 158
-3 157 -4 0 -35 c0 -52 -29 -182 -53 -239 -79 -187 -225 -333 -412 -412 -57
-24 -187 -53 -240 -53 l-35 0 -2 163 -2 162 -3 -164 -4 -164 -62 6 c-194 19
-377 116 -500 264 -95 116 -167 296 -167 420 l0 53 158 2 157 2 -157 3 -158 4
0 48 c0 165 118 394 264 512 119 96 293 167 414 168 l52 1 2 -162z"/>
<path d="M1331 1503 c-1 -22 -4 -23 -99 -23 l-98 0 -101 -175 -102 -175 102
-175 102 -175 97 0 c92 0 97 -1 101 -22 l4 -23 2 23 c1 21 4 22 101 22 l99 0
70 118 c38 64 83 144 101 177 l32 60 -99 170 -100 170 -101 3 c-95 3 -101 4
-105 25 l-4 22 -2 -22z m297 -195 c70 -121 90 -163 80 -169 -10 -7 -10 -9 0
-9 6 0 12 -4 12 -9 0 -5 -42 -80 -93 -167 l-92 -159 -197 -3 -196 -2 -96 166
c-53 91 -96 167 -96 170 0 2 8 4 18 5 15 0 15 1 1 7 -14 6 0 34 78 170 l95
162 197 0 196 -1 93 -161z"/>
<path d="M1332 1303 l-2 -162 -157 -4 -158 -3 158 -2 157 -2 2 -162 2 -163 6
160 5 160 160 5 160 6 -162 2 -163 2 -3 163 -3 162 -2 -162z"/>
<path d="M2628 1123 c18 -2 45 -2 60 0 15 2 0 4 -33 4 -33 0 -45 -2 -27 -4z"/>
<path d="M2748 1123 c6 -2 18 -2 25 0 6 3 1 5 -13 5 -14 0 -19 -2 -12 -5z"/>
<path d="M522 398 c-18 -18 -14 -36 11 -49 22 -12 22 -12 3 10 -20 22 -9 29
14 9 8 -7 6 -3 -4 10 -11 12 -14 22 -8 22 6 0 14 -4 17 -10 3 -5 11 -10 18
-10 6 0 2 7 -9 15 -23 18 -27 18 -42 3z"/>
<path d="M472 348 c-18 -18 -14 -36 11 -49 22 -12 22 -12 3 10 -20 22 -9 29
14 9 8 -7 6 -3 -4 10 -11 12 -14 22 -8 22 6 0 14 -4 17 -10 3 -5 11 -10 18
-10 6 0 2 7 -9 15 -23 18 -27 18 -42 3z"/>
<path d="M410 310 c0 -5 8 -6 17 -3 12 5 15 2 11 -9 -4 -10 -1 -15 10 -14 11
1 16 -6 15 -18 -1 -13 2 -15 10 -7 8 8 4 18 -13 36 -24 25 -50 33 -50 15z"/>
<path d="M390 273 c1 -11 50 -46 56 -40 3 3 -9 15 -25 27 -17 12 -31 18 -31
13z"/>
<path d="M340 225 c-15 -29 -7 -55 20 -62 11 -3 20 -10 20 -17 0 -6 8 4 17 23
18 37 11 59 -24 72 -16 6 -23 2 -33 -16z m50 -10 c7 -8 9 -22 5 -32 -6 -14 -9
-15 -12 -4 -4 10 -7 11 -13 1 -10 -17 -30 -4 -30 20 0 16 11 27 31 29 4 1 12
-6 19 -14z"/>
</g>
</svg>
