<?xml version="1.0" standalone="no"?>
<!DOCTYPE svg PUBLIC "-//W3C//DTD SVG 20010904//EN"
 "http://www.w3.org/TR/2001/REC-SVG-20010904/DTD/svg10.dtd">
<svg version="1.0" xmlns="http://www.w3.org/2000/svg"
 width="659.000000pt" height="240.000000pt" viewBox="0 0 659.000000 240.000000"
 preserveAspectRatio="xMidYMid meet">

<g transform="translate(0.000000,240.000000) scale(0.100000,-0.100000)"
fill="#000000" stroke="none">
<path d="M4071 2075 c-1 -60 -2 -186 -1 -280 0 -101 -3 -165 -8 -157 -7 11
-55 13 -222 13 -117 0 -214 -2 -215 -3 -1 -2 -8 -21 -17 -43 -11 -32 -14 -89
-13 -277 l2 -238 -83 0 c-49 0 -84 -4 -84 -10 0 -6 35 -10 84 -10 l84 0 -2
-242 c-2 -212 0 -249 16 -285 l17 -43 210 0 211 0 20 40 c14 28 20 59 20 110
l0 70 799 0 799 0 31 35 31 36 0 139 0 140 135 0 c83 0 135 4 135 10 0 6 -51
10 -134 10 l-135 0 -6 143 c-3 78 -9 324 -13 547 -4 223 -8 357 -10 297 -2
-106 -2 -107 -24 -102 -133 30 -148 31 -148 10 0 -12 -13 -15 -60 -15 -33 0
-60 -4 -60 -10 0 -6 27 -10 60 -10 47 0 60 -3 60 -15 0 -18 7 -18 90 0 36 8
68 14 73 15 4 0 7 -124 7 -277 0 -267 -1 -276 -18 -260 -17 16 -88 17 -814 17
l-795 0 -6 122 c-8 137 -9 398 -3 398 3 0 38 -7 78 -15 65 -14 74 -14 84 0 8
10 28 15 68 15 31 0 56 5 56 10 0 6 -27 10 -60 10 -47 0 -60 3 -60 15 0 21
-15 20 -147 -10 -22 -5 -22 -3 -26 102 l-3 108 -3 -110z m-30 -492 c15 -45 15
-137 0 -175 l-11 -28 -189 0 -189 0 -11 31 c-14 41 -14 122 1 170 l11 39 188
0 187 0 13 -37z m1609 -213 c0 -7 -267 -10 -780 -10 -513 0 -780 3 -780 10 0
7 267 10 780 10 513 0 780 -3 780 -10z m0 -150 l0 -130 -144 0 c-86 0 -147 -4
-151 -10 -4 -6 47 -10 144 -10 l151 0 0 -130 0 -130 -780 0 -780 0 0 130 0
130 311 0 c204 0 308 3 304 10 -4 6 -118 10 -311 10 l-304 0 0 130 0 130 780
0 780 0 0 -130z m-1612 43 c6 -43 14 -99 17 -125 l6 -48 -215 0 -216 0 0 43
c0 23 5 79 12 125 l11 82 187 0 188 0 10 -77z m15 -265 c-4 -40 -11 -98 -17
-128 l-11 -55 -185 0 -185 0 -11 65 c-7 36 -12 93 -13 128 l-1 62 214 0 215 0
-6 -72z m1597 -218 c0 -7 -267 -10 -780 -10 -513 0 -780 3 -780 10 0 7 267 10
780 10 513 0 780 -3 780 -10z m-1609 -37 c7 -21 13 -60 13 -88 0 -27 -6 -67
-13 -87 l-13 -38 -184 0 -185 0 -15 35 c-16 40 -18 124 -3 178 l10 37 189 0
188 0 13 -37z"/>
<path d="M4890 1080 c0 -6 54 -10 141 -10 91 0 138 4 134 10 -4 6 -62 10 -141
10 -83 0 -134 -4 -134 -10z"/>
<path d="M4834 2062 c-22 -14 -34 -52 -34 -104 0 -70 19 -98 66 -98 31 0 37 4
51 37 21 51 12 131 -18 156 -22 18 -47 22 -65 9z m60 -44 c9 -36 7 -97 -4
-119 -13 -23 -46 -25 -54 -3 -8 21 -8 129 1 137 15 16 51 6 57 -15z"/>
<path d="M5108 2063 c-10 -2 -18 -10 -18 -18 0 -9 11 -12 39 -8 65 9 64 -42
-3 -106 -20 -19 -36 -43 -36 -53 0 -15 9 -18 60 -18 33 0 60 4 60 10 0 6 -21
10 -46 10 l-46 0 41 46 c33 37 41 55 41 85 0 51 -31 68 -92 52z"/>
<path d="M4440 1960 c0 -82 3 -100 15 -100 12 0 15 16 16 78 l1 77 21 -47 c12
-26 27 -48 33 -48 6 0 22 24 35 53 l24 52 3 -82 c4 -118 22 -104 22 17 0 90
-2 100 -18 100 -12 0 -26 -17 -41 -52 l-23 -53 -25 53 c-17 36 -30 52 -44 52
-17 0 -19 -8 -19 -100z"/>
<path d="M4693 2046 c-26 -12 -30 -26 -8 -26 12 0 15 -14 15 -70 0 -56 -3 -70
-15 -70 -8 0 -15 -4 -15 -10 0 -5 23 -10 50 -10 28 0 50 5 50 10 0 6 -9 10
-20 10 -19 0 -20 7 -20 90 0 50 -3 89 -7 89 -5 -1 -18 -6 -30 -13z"/>
<path d="M5250 2011 l0 -50 38 -3 c30 -2 38 -7 40 -26 5 -36 -16 -55 -55 -47
-26 5 -33 3 -33 -10 0 -23 82 -21 103 3 34 37 15 96 -33 107 -23 5 -30 12 -30
31 0 21 4 24 40 24 22 0 40 5 40 10 0 6 -25 10 -55 10 l-55 0 0 -49z"/>
<path d="M4958 1983 c10 -16 22 -33 25 -39 3 -6 -5 -27 -19 -47 -18 -27 -21
-37 -11 -37 8 0 23 12 32 27 l18 27 22 -28 c33 -42 50 -29 21 15 l-25 36 25
37 c18 26 21 36 11 36 -8 0 -23 -12 -32 -27 l-18 -26 -19 26 c-11 15 -26 27
-35 27 -12 0 -11 -5 5 -27z"/>
<path d="M625 1640 c-4 -6 32 -10 100 -10 97 0 106 -2 101 -17 -2 -10 -10 -45
-16 -77 -11 -52 -10 -61 4 -71 13 -10 16 -31 16 -99 0 -51 4 -86 10 -86 6 0
10 37 10 90 0 73 3 90 15 90 21 0 20 15 -10 148 l-5 22 540 0 c358 0 539 3
535 10 -4 6 -232 10 -650 10 -418 0 -646 -4 -650 -10z"/>
<path d="M1763 1508 l-243 -140 0 -289 0 -289 38 -23 c20 -13 133 -79 251
-147 l214 -123 61 33 c85 47 308 175 380 220 l61 37 3 290 2 291 -172 100
c-241 138 -322 182 -339 181 -8 -1 -123 -64 -256 -141z m295 74 c-15 -2 -42
-2 -60 0 l-33 3 30 17 c28 15 32 15 60 0 l30 -17 -27 -3z m75 -47 c159 -41
285 -153 336 -300 20 -55 22 -80 19 -177 -3 -103 -6 -119 -35 -180 -88 -186
-294 -299 -491 -268 -287 45 -470 329 -387 602 23 78 56 130 119 194 121 121
285 169 439 129z m-533 -189 c-17 -24 -30 -49 -30 -54 0 -6 -4 -14 -10 -17 -6
-4 -10 10 -10 34 0 37 4 42 38 60 20 11 38 20 39 21 1 0 -11 -20 -27 -44z
m865 22 c20 -9 25 -18 25 -47 l-1 -36 -16 30 c-8 17 -22 38 -31 48 -18 20 -12
21 23 5z m-870 -552 l28 -50 -34 20 c-28 17 -35 27 -37 59 -4 46 2 41 43 -29z
m895 16 c0 -20 -8 -32 -30 -45 l-30 -18 28 45 c15 25 28 46 30 46 1 0 2 -13 2
-28z m-436 -279 c-28 -14 -34 -14 -60 0 l-29 16 60 0 60 0 -31 -16z"/>
<path d="M740 1155 c0 -37 4 -65 10 -65 6 0 10 23 10 50 0 28 2 50 5 50 3 0
41 -18 85 -40 89 -45 90 -45 90 -27 0 13 -160 97 -185 97 -12 0 -15 -14 -15
-65z"/>
<path d="M920 1040 c0 -19 -7 -20 -91 -20 -69 0 -89 -3 -85 -12 3 -7 9 -21 12
-30 9 -24 24 -23 24 2 0 18 7 20 70 20 63 0 70 -2 70 -20 0 -11 5 -20 10 -20
6 0 10 23 10 50 0 28 -4 50 -10 50 -5 0 -10 -9 -10 -20z"/>
<path d="M830 785 c0 -78 -3 -95 -15 -95 -18 0 -18 -18 0 -95 8 -33 15 -63 15
-67 0 -4 -48 -9 -107 -11 -60 -1 189 -3 552 -2 604 0 614 0 118 2 -299 2 -543
7 -543 11 0 4 7 34 15 67 18 77 18 95 0 95 -12 0 -15 17 -15 95 0 57 -4 95
-10 95 -6 0 -10 -38 -10 -95z"/>
</g>
</svg>
