<?xml version="1.0" standalone="no"?>
<!DOCTYPE svg PUBLIC "-//W3C//DTD SVG 20010904//EN"
 "http://www.w3.org/TR/2001/REC-SVG-20010904/DTD/svg10.dtd">
<svg version="1.0" xmlns="http://www.w3.org/2000/svg"
 width="725.000000pt" height="256.000000pt" viewBox="0 0 725.000000 256.000000"
 preserveAspectRatio="xMidYMid meet">

<g transform="translate(0.000000,256.000000) scale(0.100000,-0.100000)"
fill="#000000" stroke="none">
<path d="M4910 2400 c0 -5 7 -7 15 -4 8 4 15 8 15 10 0 2 -7 4 -15 4 -8 0 -15
-4 -15 -10z"/>
<path d="M4965 2400 c-3 -6 1 -7 9 -4 21 8 20 -10 0 -41 -16 -24 -15 -25 7
-25 18 0 21 2 10 9 -12 8 -12 12 -2 25 14 17 9 46 -8 46 -5 0 -13 -4 -16 -10z"/>
<path d="M5021 2358 l1 -33 8 30 7 30 5 -30 5 -30 2 28 c0 19 5 26 13 21 7 -4
8 -3 4 4 -4 7 -16 12 -27 12 -15 0 -19 -7 -18 -32z"/>
<path d="M5091 2358 c1 -30 2 -30 8 -8 3 14 13 25 21 25 8 0 18 -11 22 -25 6
-23 6 -22 5 5 -2 25 -7 31 -29 33 -26 3 -28 1 -27 -30z"/>
<path d="M4920 2361 c-14 -27 -13 -31 8 -30 10 0 12 3 5 6 -9 3 -10 10 -3 24
6 10 8 19 6 19 -3 0 -10 -9 -16 -19z"/>
<path d="M3584 2205 c0 -132 1 -142 3 -46 l4 123 29 -6 c17 -3 30 -1 30 4 0 7
489 10 1375 10 886 0 1375 -3 1375 -10 0 -5 13 -7 30 -3 l30 6 0 -271 0 -271
-32 -3 c-18 -2 -664 -2 -1435 0 l-1403 2 0 145 0 145 -415 0 c-448 0 -466 -2
-499 -53 -15 -22 -16 -96 -14 -716 l3 -693 28 -24 28 -24 435 0 434 0 0 139
c0 118 2 140 16 145 9 3 637 6 1397 6 759 0 1381 1 1383 2 1 2 146 1 321 -2
175 -3 336 -2 358 1 l40 6 -37 2 -37 1 0 454 0 455 37 4 c20 2 -106 4 -280 5
l-318 2 -2 318 c-1 174 -3 300 -5 279 l-4 -37 -1434 0 -1434 0 -4 38 c-2 20
-3 -39 -3 -133z m-4 -560 l0 -365 -47 -2 -48 -2 48 -3 47 -4 0 -370 0 -369
-426 0 -426 0 -29 29 -29 29 0 341 0 341 53 2 52 2 -52 3 -53 4 0 330 c0 272
3 335 15 359 8 15 20 30 27 33 7 3 205 6 441 6 l427 1 0 -365z m2790 45 l0
-40 -1382 2 -1383 3 -3 23 c-8 56 -107 52 1388 52 l1380 0 0 -40z m88 3 c-3
-36 -5 -38 -38 -38 -31 0 -35 3 -38 28 -2 15 0 27 4 27 4 0 22 -12 38 -27 l31
-28 -27 31 c-35 38 -35 44 3 44 29 0 30 -2 27 -37z m561 -418 l0 -455 -312 0
-311 0 37 38 37 38 0 417 0 417 274 0 275 0 0 -455z m-649 185 l0 -180 -42 -2
-43 -1 43 -4 42 -4 0 -185 0 -184 -1382 2 -1383 3 0 180 0 180 45 6 45 6 -47
1 -48 2 0 180 0 180 1385 0 1385 0 0 -180z m90 0 l0 -180 -40 0 -40 0 0 180 0
180 40 0 40 0 0 -180z m0 -376 l0 -185 -37 3 -38 3 -3 170 c-1 93 0 175 2 182
3 7 21 13 41 13 l35 0 0 -186z m-90 -229 l0 -35 -1385 0 -1385 0 0 35 0 35
1385 0 1385 0 0 -35z m70 32 c0 -2 -13 -16 -30 -32 l-30 -29 0 32 c0 29 3 32
30 32 17 0 30 -1 30 -3z"/>
<path d="M2808 1273 c6 -2 18 -2 25 0 6 3 1 5 -13 5 -14 0 -19 -2 -12 -5z"/>
<path d="M2898 1273 c18 -2 45 -2 60 0 15 2 0 4 -33 4 -33 0 -45 -2 -27 -4z"/>
<path d="M3018 1273 c6 -2 18 -2 25 0 6 3 1 5 -13 5 -14 0 -19 -2 -12 -5z"/>
<path d="M3108 1273 c18 -2 45 -2 60 0 15 2 0 4 -33 4 -33 0 -45 -2 -27 -4z"/>
<path d="M3228 1273 c7 -3 16 -2 19 1 4 3 -2 6 -13 5 -11 0 -14 -3 -6 -6z"/>
<path d="M3313 1273 c15 -2 39 -2 55 0 15 2 2 4 -28 4 -30 0 -43 -2 -27 -4z"/>
<path d="M3438 1273 c7 -3 16 -2 19 1 4 3 -2 6 -13 5 -11 0 -14 -3 -6 -6z"/>
<path d="M6916 1322 c-3 -3 -6 -12 -6 -19 0 -10 11 -13 38 -11 48 4 52 32 5
35 -17 0 -34 -1 -37 -5z m24 -12 c0 -5 -4 -10 -10 -10 -5 0 -10 5 -10 10 0 6
5 10 10 10 6 0 10 -4 10 -10z m40 0 c0 -5 -7 -10 -15 -10 -8 0 -15 5 -15 10 0
6 7 10 15 10 8 0 15 -4 15 -10z"/>
<path d="M6508 1273 c6 -2 18 -2 25 0 6 3 1 5 -13 5 -14 0 -19 -2 -12 -5z"/>
<path d="M6593 1273 c15 -2 39 -2 55 0 15 2 2 4 -28 4 -30 0 -43 -2 -27 -4z"/>
<path d="M6923 1259 c18 -10 18 -11 0 -25 -16 -12 -14 -13 22 -13 35 1 37 2
15 9 -14 4 -21 8 -16 9 12 1 -14 31 -28 31 -6 0 -3 -5 7 -11z"/>
<path d="M3728 1273 c6 -2 18 -2 25 0 6 3 1 5 -13 5 -14 0 -19 -2 -12 -5z"/>
<path d="M3813 1273 c15 -2 37 -2 50 0 12 2 0 4 -28 4 -27 0 -38 -2 -22 -4z"/>
<path d="M3918 1273 c6 -2 18 -2 25 0 6 3 1 5 -13 5 -14 0 -19 -2 -12 -5z"/>
<path d="M4003 1273 c15 -2 37 -2 50 0 12 2 0 4 -28 4 -27 0 -38 -2 -22 -4z"/>
<path d="M4118 1273 c7 -3 16 -2 19 1 4 3 -2 6 -13 5 -11 0 -14 -3 -6 -6z"/>
<path d="M4193 1273 c15 -2 39 -2 55 0 15 2 2 4 -28 4 -30 0 -43 -2 -27 -4z"/>
<path d="M4308 1273 c7 -3 16 -2 19 1 4 3 -2 6 -13 5 -11 0 -14 -3 -6 -6z"/>
<path d="M4393 1273 c15 -2 37 -2 50 0 12 2 0 4 -28 4 -27 0 -38 -2 -22 -4z"/>
<path d="M4498 1273 c6 -2 18 -2 25 0 6 3 1 5 -13 5 -14 0 -19 -2 -12 -5z"/>
<path d="M4583 1273 c15 -2 37 -2 50 0 12 2 0 4 -28 4 -27 0 -38 -2 -22 -4z"/>
<path d="M4688 1273 c6 -2 18 -2 25 0 6 3 1 5 -13 5 -14 0 -19 -2 -12 -5z"/>
<path d="M4773 1273 c15 -2 37 -2 50 0 12 2 0 4 -28 4 -27 0 -38 -2 -22 -4z"/>
<path d="M4878 1273 c6 -2 18 -2 25 0 6 3 1 5 -13 5 -14 0 -19 -2 -12 -5z"/>
<path d="M4963 1273 c15 -2 37 -2 50 0 12 2 0 4 -28 4 -27 0 -38 -2 -22 -4z"/>
<path d="M5078 1273 c7 -3 16 -2 19 1 4 3 -2 6 -13 5 -11 0 -14 -3 -6 -6z"/>
<path d="M5163 1273 c15 -2 37 -2 50 0 12 2 0 4 -28 4 -27 0 -38 -2 -22 -4z"/>
<path d="M5268 1273 c6 -2 18 -2 25 0 6 3 1 5 -13 5 -14 0 -19 -2 -12 -5z"/>
<path d="M5353 1273 c15 -2 37 -2 50 0 12 2 0 4 -28 4 -27 0 -38 -2 -22 -4z"/>
<path d="M5458 1273 c6 -2 18 -2 25 0 6 3 1 5 -13 5 -14 0 -19 -2 -12 -5z"/>
<path d="M5543 1273 c15 -2 37 -2 50 0 12 2 0 4 -28 4 -27 0 -38 -2 -22 -4z"/>
<path d="M5648 1273 c6 -2 18 -2 25 0 6 3 1 5 -13 5 -14 0 -19 -2 -12 -5z"/>
<path d="M5733 1273 c15 -2 37 -2 50 0 12 2 0 4 -28 4 -27 0 -38 -2 -22 -4z"/>
<path d="M5848 1273 c7 -3 16 -2 19 1 4 3 -2 6 -13 5 -11 0 -14 -3 -6 -6z"/>
<path d="M5933 1273 c15 -2 37 -2 50 0 12 2 0 4 -28 4 -27 0 -38 -2 -22 -4z"/>
<path d="M6038 1273 c7 -3 16 -2 19 1 4 3 -2 6 -13 5 -11 0 -14 -3 -6 -6z"/>
<path d="M6123 1273 c15 -2 37 -2 50 0 12 2 0 4 -28 4 -27 0 -38 -2 -22 -4z"/>
<path d="M6228 1273 c6 -2 18 -2 25 0 6 3 1 5 -13 5 -14 0 -19 -2 -12 -5z"/>
<path d="M1141 2058 c0 -16 -5 -28 -10 -28 -5 0 -44 -5 -87 -11 -347 -48 -614
-325 -650 -675 -6 -58 -9 -63 -33 -67 l-26 -4 26 -2 c25 -1 27 -4 33 -70 17
-165 87 -323 195 -434 46 -48 46 -48 25 -66 -11 -9 -23 -22 -25 -28 -2 -6 -74
-89 -159 -184 -220 -245 -236 -264 -222 -255 7 4 96 100 199 214 103 114 191
209 197 211 6 2 17 13 26 23 15 19 18 17 92 -32 42 -28 103 -61 135 -74 65
-27 194 -56 247 -56 32 0 35 -3 39 -32 l4 -33 1 31 c2 31 2 31 70 37 254 24
484 182 600 414 37 72 68 181 77 270 6 57 9 62 33 66 l27 4 -26 2 c-25 1 -26
5 -38 87 -31 224 -154 419 -340 539 -104 67 -207 102 -353 120 -41 5 -47 9
-51 33 l-4 27 -2 -27z m1 -210 l2 -163 3 164 4 164 72 -6 c196 -13 401 -132
522 -302 78 -109 122 -225 139 -372 l7 -53 -163 -2 -163 -2 155 -3 c85 -2 158
-7 162 -11 13 -13 -13 -163 -41 -242 -72 -196 -221 -351 -415 -433 -66 -28
-189 -56 -248 -57 l-28 0 -2 163 -2 162 -3 -164 -4 -164 -63 7 c-359 37 -632
310 -672 674 l-7 62 164 2 164 2 -162 3 c-139 3 -163 6 -163 19 0 45 25 167
47 227 39 108 90 186 182 278 69 68 105 95 172 128 102 51 203 80 282 80 l57
1 2 -162z"/>
<path d="M1141 1648 l-1 -27 -102 -3 -102 -3 -99 -172 -99 -172 100 -173 100
-173 101 -3 c94 -3 100 -4 104 -25 l4 -22 2 23 c1 21 4 22 100 22 l98 0 101
176 102 176 -99 171 -99 172 -101 3 -100 3 -4 27 -4 27 -2 -27z m295 -203 c78
-135 90 -161 76 -167 -16 -6 -16 -7 1 -7 9 -1 17 -3 17 -5 0 -3 -42 -78 -94
-168 l-94 -163 -198 0 -198 0 -93 160 c-51 88 -92 163 -93 168 0 4 8 7 18 8
16 0 16 1 0 7 -15 6 -5 29 75 170 l92 162 199 -3 200 -2 92 -160z"/>
<path d="M1142 1443 l-2 -163 -162 -3 -163 -3 162 -2 163 -2 3 -162 3 -163 2
162 2 163 163 3 162 3 -162 2 -163 2 -3 163 -3 162 -2 -162z"/>
<path d="M2483 1273 c15 -2 39 -2 55 0 15 2 2 4 -28 4 -30 0 -43 -2 -27 -4z"/>
<path d="M2608 1273 c7 -3 16 -2 19 1 4 3 -2 6 -13 5 -11 0 -14 -3 -6 -6z"/>
<path d="M326 542 c-15 -18 -15 -20 6 -38 l23 -19 -19 23 c-21 24 -16 28 17
11 22 -12 22 -12 3 10 -20 22 -9 29 14 9 12 -11 12 -10 1 5 -17 22 -24 21 -45
-1z"/>
<path d="M282 488 c-18 -18 -14 -36 11 -49 22 -12 22 -12 3 10 -20 22 -9 29
14 9 8 -7 6 -3 -4 10 -11 12 -14 22 -8 22 6 0 14 -4 17 -10 3 -5 11 -10 18
-10 6 0 2 7 -9 15 -23 18 -27 18 -42 3z"/>
<path d="M216 451 c-4 -5 3 -7 14 -4 23 6 26 13 6 13 -8 0 -17 -4 -20 -9z"/>
<path d="M240 432 c0 -4 9 -8 19 -8 11 0 17 4 15 8 -3 4 -12 8 -20 8 -8 0 -14
-4 -14 -8z"/>
<path d="M190 408 c0 -6 3 -8 7 -5 3 4 18 -3 32 -15 l26 -23 -24 28 c-26 29
-41 35 -41 15z"/>
<path d="M147 373 c-10 -10 -8 -25 2 -18 6 3 15 -3 21 -12 10 -16 10 -15 5 5
-7 24 4 29 23 10 17 -17 15 -26 -9 -38 -15 -9 -24 -8 -35 1 -10 8 -14 8 -14 0
0 -6 11 -13 25 -17 14 -3 25 -11 25 -18 1 -9 30 49 30 59 0 2 -7 11 -16 19
-16 16 -46 21 -57 9z"/>
</g>
</svg>
