<?xml version="1.0" standalone="no"?>
<!DOCTYPE svg PUBLIC "-//W3C//DTD SVG 20010904//EN"
 "http://www.w3.org/TR/2001/REC-SVG-20010904/DTD/svg10.dtd">
<svg version="1.0" xmlns="http://www.w3.org/2000/svg"
 width="963.000000pt" height="437.000000pt" viewBox="0 0 963.000000 437.000000"
 preserveAspectRatio="xMidYMid meet">

<g transform="translate(0.000000,437.000000) scale(0.100000,-0.100000)"
fill="#000000" stroke="none">
<path d="M522 4017 l-122 -122 0 -1391 0 -1390 128 -127 129 -127 1384 0 1385
0 127 127 127 127 0 1391 0 1390 -123 123 -122 122 -1395 0 -1395 0 -123 -123z
m40 -30 c-93 -93 -113 -108 -132 -102 -21 7 -12 17 96 126 107 107 120 118
132 102 11 -15 0 -30 -96 -126z m2841 123 c-5 -20 -14 -20 -1364 -20 -748 0
-1359 2 -1359 4 0 2 -3 11 -6 20 -6 15 119 16 1364 16 1365 0 1370 0 1365 -20z
m145 -103 c62 -62 110 -116 106 -120 -19 -18 -47 1 -142 96 -76 76 -101 108
-96 120 3 9 9 17 13 17 3 0 57 -51 119 -113z m-41 -39 l113 -113 0 -1350 0
-1350 -112 -112 -113 -113 -1355 0 -1355 0 -112 112 -113 113 0 1350 0 1350
112 112 113 113 1355 0 1355 0 112 -112z m-3073 -104 c14 -6 16 -135 16 -1360
0 -1343 0 -1353 -20 -1364 -20 -11 -20 -8 -20 1360 0 753 2 1370 4 1370 2 0
11 -3 20 -6z m3226 -1360 c0 -1088 -3 -1365 -12 -1362 -10 4 -14 286 -16 1358
-2 1333 -1 1368 26 1370 1 0 2 -615 2 -1366z m-3098 -1481 c83 -84 105 -111
98 -123 -8 -12 -32 8 -124 99 -63 63 -113 118 -110 123 12 19 35 2 136 -99z
m3082 99 c3 -5 -46 -59 -108 -121 -74 -74 -115 -108 -119 -100 -4 13 198 229
215 229 4 0 9 -4 12 -8z m-240 -227 c5 -13 -151 -15 -1364 -15 -1213 0 -1369
2 -1364 15 5 13 166 15 1364 15 1198 0 1359 -2 1364 -15z"/>
<path d="M2032 3383 l-2 -43 -49 0 c-60 0 -165 -23 -241 -52 -260 -100 -442
-305 -518 -583 -23 -86 -23 -318 1 -404 46 -168 103 -267 222 -387 155 -156
294 -220 537 -249 44 -6 47 -8 51 -38 l4 -32 1 32 c2 30 4 32 50 37 247 29
394 96 547 250 155 157 228 318 242 536 20 323 -146 629 -427 788 -105 58
-256 102 -355 102 l-54 0 -4 43 -4 42 -1 -42z m0 -220 l2 -168 3 169 3 169 66
-7 c126 -13 235 -47 344 -108 77 -44 179 -128 180 -149 0 -3 -10 -11 -23 -18
-13 -7 -24 -19 -24 -27 0 -22 17 -17 39 12 20 24 21 25 40 7 63 -56 145 -212
179 -338 30 -111 30 -288 0 -400 -57 -218 -207 -414 -397 -520 -110 -62 -254
-105 -351 -105 l-53 0 -2 173 -2 172 -3 -172 -3 -173 -48 0 c-93 0 -231 43
-347 106 -357 196 -515 644 -362 1022 83 205 251 375 457 461 63 26 207 59
263 60 l37 1 2 -167z"/>
<path d="M2032 2930 c0 -14 2 -19 5 -12 2 6 2 18 0 25 -3 6 -5 1 -5 -13z"/>
<path d="M2469 2913 l-24 -28 28 24 c25 23 32 31 24 31 -2 0 -14 -12 -28 -27z"/>
<path d="M2234 2872 c13 -15 23 -19 30 -12 6 6 14 6 23 -2 11 -9 11 -14 1 -27
-12 -14 -11 -14 5 -2 17 13 17 15 -5 38 -15 16 -24 20 -29 11 -6 -9 -12 -8
-26 2 -16 13 -16 12 1 -8z"/>
<path d="M2190 2851 c0 -6 4 -13 10 -16 6 -3 7 1 4 9 -7 18 -14 21 -14 7z"/>
<path d="M2034 2510 c0 -190 2 -267 3 -172 2 94 2 250 0 345 -1 94 -3 17 -3
-173z"/>
<path d="M2339 2793 l-24 -28 28 24 c25 23 32 31 24 31 -2 0 -14 -12 -28 -27z"/>
<path d="M2032 2090 c0 -14 2 -19 5 -12 2 6 2 18 0 25 -3 6 -5 1 -5 -13z"/>
<path d="M4220 4129 c0 -8 0 -742 0 -1631 l0 -1618 -278 -3 c-273 -2 -273 -2
53 -3 182 0 309 1 283 3 l-48 4 0 1626 c0 894 -2 1628 -5 1631 -3 3 -5 -1 -5
-9z"/>
<path d="M6872 3210 c0 -19 2 -27 5 -17 2 9 2 25 0 35 -3 9 -5 1 -5 -18z"/>
<path d="M6872 3110 c0 -14 2 -19 5 -12 2 6 2 18 0 25 -3 6 -5 1 -5 -13z"/>
<path d="M6076 3032 l-790 -2 -23 -22 -23 -21 0 -462 0 -461 28 -27 28 -27
1525 1 c1307 2 2709 11 2542 17 l-51 2 5 40 c5 33 3 40 -11 40 -13 0 -15 -7
-10 -40 l7 -40 -408 0 c-395 0 -408 1 -392 18 15 17 17 64 17 478 -1 433 -2
460 -19 481 l-19 23 -809 2 c-444 2 -1163 2 -1597 0z m-578 -29 c-3 -16 -18
-18 -111 -21 -105 -3 -128 4 -89 27 9 6 59 11 110 11 84 0 93 -2 90 -17z m370
0 c-3 -16 -21 -18 -176 -21 -139 -2 -172 0 -172 11 0 8 3 17 7 20 3 4 82 7
175 7 156 0 169 -1 166 -17z m170 0 c-3 -15 -16 -18 -81 -21 -72 -3 -77 -1
-77 18 0 18 6 20 81 20 71 0 80 -2 77 -17z m832 -3 c0 -20 -7 -20 -410 -20
-403 0 -410 0 -410 20 0 20 7 20 410 20 403 0 410 0 410 -20z m838 3 c-3 -17
-32 -18 -416 -21 -340 -2 -412 0 -412 11 0 8 3 17 7 20 3 4 190 7 415 7 385 0
409 -1 406 -17z m170 0 c-3 -15 -16 -18 -81 -21 -72 -3 -77 -1 -77 18 0 18 6
20 81 20 71 0 80 -2 77 -17z m362 -3 c0 -19 -7 -20 -175 -20 -168 0 -175 1
-175 20 0 19 7 20 175 20 168 0 175 -1 175 -20z m228 8 c24 -24 10 -28 -92
-28 -80 0 -105 3 -109 14 -3 8 -3 17 0 20 12 12 189 6 201 -6z m-2978 -483 l0
-445 -120 0 -120 0 0 438 c0 241 3 442 7 445 3 4 57 7 120 7 l113 0 0 -445z
m2770 0 l0 -445 -1375 0 -1375 0 0 445 0 445 1375 0 1375 0 0 -445z m248 -2
l2 -443 -120 0 -120 0 0 438 c0 241 3 442 7 446 4 3 57 5 117 4 l111 -3 3
-442z m-3004 -478 c5 -13 -10 -15 -98 -15 -80 0 -106 3 -116 15 -11 13 1 15
98 15 88 0 111 -3 116 -15z m2740 0 c-5 -13 -166 -15 -1364 -15 -1198 0 -1359
2 -1364 15 -5 13 151 15 1364 15 1213 0 1369 -2 1364 -15z m236 0 c-10 -12
-36 -15 -116 -15 -95 0 -116 5 -97 23 3 4 56 7 116 7 96 0 108 -2 97 -15z"/>
<path d="M9300 3013 c0 -10 -3 -28 -6 -40 -5 -17 -2 -23 10 -23 13 0 16 8 14
40 -2 39 -18 58 -18 23z"/>
<path d="M4113 2653 c-7 -2 -12 -19 -12 -36 1 -18 3 -24 6 -14 3 10 15 17 31
18 27 1 27 1 -3 9 -29 7 -28 9 15 23 10 4 8 5 -5 5 -11 0 -26 -2 -32 -5z"/>
<path d="M9180 2603 c0 -20 5 -23 33 -22 l32 1 -30 8 c-29 7 -26 11 15 23 8 2
0 6 -17 9 -29 4 -33 2 -33 -19z"/>
<path d="M4107 2553 c-4 -3 -6 -20 -6 -37 1 -17 3 -23 6 -14 2 9 16 19 31 21
l27 4 -29 2 c-21 1 -27 5 -22 16 6 16 3 19 -7 8z"/>
<path d="M9187 2543 c-4 -3 -7 -19 -7 -35 0 -25 3 -28 33 -27 29 2 30 2 5 6
-24 4 -27 8 -24 34 4 31 3 33 -7 22z"/>
<path d="M4078 2453 c7 -3 16 -2 19 1 4 3 -2 6 -13 5 -11 0 -14 -3 -6 -6z"/>
<path d="M4110 2449 c0 -5 9 -9 20 -9 11 0 20 2 20 4 0 2 -9 6 -20 9 -11 3
-20 1 -20 -4z"/>
<path d="M9173 2443 c11 -3 16 -11 13 -19 -3 -8 1 -14 9 -14 9 0 12 6 9 15 -4
10 0 15 15 15 24 0 27 -10 9 -29 -11 -10 -10 -11 5 -6 9 4 17 16 17 26 0 16
-7 19 -47 18 -27 -1 -40 -3 -30 -6z"/>
<path d="M6872 1940 c0 -14 2 -19 5 -12 2 6 2 18 0 25 -3 6 -5 1 -5 -13z"/>
<path d="M6872 1830 c0 -19 2 -27 5 -17 2 9 2 25 0 35 -3 9 -5 1 -5 -18z"/>
<path d="M2014 356 c-3 -8 -4 -25 -1 -38 3 -18 5 -15 6 9 1 30 3 32 31 29 16
-2 27 1 24 5 -9 14 -54 10 -60 -5z"/>
<path d="M2114 356 c-3 -8 -4 -25 -1 -38 3 -18 5 -15 6 9 1 30 3 32 31 29 16
-2 27 1 24 5 -9 14 -54 10 -60 -5z"/>
<path d="M2081 324 c0 -11 3 -14 6 -6 3 7 2 16 -1 19 -3 4 -6 -2 -5 -13z"/>
<path d="M469 255 c-3 -2 -19 -5 -37 -7 -43 -3 -40 -15 6 -21 41 -5 55 2 43
21 -4 7 -10 10 -12 7z"/>
<path d="M3586 245 c-7 -20 5 -26 40 -19 l33 6 4 -48 c3 -48 3 -48 5 10 1 33
0 57 -4 54 -3 -3 -20 -2 -39 2 -24 5 -35 4 -39 -5z"/>
</g>
</svg>
