{
    "asset" : {
        "generator" : "Khronos glTF Blender I/O v3.4.50",
        "version" : "2.0"
    },
    "scene" : 0,
    "scenes" : [
        {
            "name" : "Scene",
            "nodes" : [
                0
            ]
        }
    ],
    "nodes" : [
        {
            "mesh" : 0,
            "name" : "omega"
        }
    ],
    "meshes" : [
        {
            "name" : "omega.001",
            "primitives" : [
                {
                    "attributes" : {
                        "POSITION" : 0,
                        "NORMAL" : 1
                    },
                    "indices" : 2
                }
            ]
        }
    ],
    "accessors" : [
        {
            "bufferView" : 0,
            "componentType" : 5126,
            "count" : 27283,
            "max" : [
                24,
                50,
                25.399999618530273
            ],
            "min" : [
                -1.0467321877560528e-15,
                0,
                -11
            ],
            "type" : "VEC3"
        },
        {
            "bufferView" : 1,
            "componentType" : 5126,
            "count" : 27283,
            "type" : "VEC3"
        },
        {
            "bufferView" : 2,
            "componentType" : 5123,
            "count" : 36348,
            "type" : "SCALAR"
        }
    ],
    "bufferViews" : [
        {
            "buffer" : 0,
            "byteLength" : 327396,
            "byteOffset" : 0,
            "target" : 34962
        },
        {
            "buffer" : 0,
            "byteLength" : 327396,
            "byteOffset" : 327396,
            "target" : 34962
        },
        {
            "buffer" : 0,
            "byteLength" : 72696,
            "byteOffset" : 654792,
            "target" : 34963
        }
    ],
    "buffers" : [
        {
            "byteLength" : 727488,
            "uri" : "data:application/octet-stream;base64,"
        }
    ]
}
