<?xml version="1.0" standalone="no"?>
<!DOCTYPE svg PUBLIC "-//W3C//DTD SVG 20010904//EN"
 "http://www.w3.org/TR/2001/REC-SVG-20010904/DTD/svg10.dtd">
<svg version="1.0" xmlns="http://www.w3.org/2000/svg"
 width="1203.000000pt" height="569.000000pt" viewBox="0 0 1203.000000 569.000000"
 preserveAspectRatio="xMidYMid meet">

<g transform="translate(0.000000,569.000000) scale(0.100000,-0.100000)"
fill="#000000" stroke="none">
<path d="M9470 5415 l0 -125 -75 0 c-43 0 -75 4 -75 10 0 6 -13 10 -30 10 -23
0 -30 -4 -30 -20 0 -19 -7 -20 -135 -20 -83 0 -135 -4 -135 -10 0 -6 52 -10
135 -10 128 0 135 -1 135 -20 0 -16 7 -20 30 -20 17 0 30 5 30 10 0 6 23 10
50 10 28 0 50 5 50 10 0 6 11 10 25 10 l25 0 0 -520 0 -520 -815 0 -815 0 0
50 c0 43 3 50 20 50 30 0 29 75 -2 101 l-21 19 21 19 c30 25 31 91 2 91 -11 0
-20 5 -20 10 0 6 5 10 10 10 6 0 10 7 10 15 0 8 5 15 10 15 6 0 10 17 10 38 0
26 -6 42 -20 52 -11 8 -20 18 -20 22 0 4 9 8 20 8 16 0 20 7 20 38 0 26 -6 42
-20 52 -11 8 -20 20 -20 27 0 7 9 13 20 13 31 0 28 63 -5 95 -20 21 -34 25
-85 25 -33 0 -60 -4 -60 -10 0 -5 -9 -10 -20 -10 -13 0 -20 -7 -20 -20 0 -11
-4 -20 -10 -20 -5 0 -10 -8 -10 -18 0 -10 -9 -24 -20 -32 -11 -8 -20 -25 -20
-37 0 -13 -4 -23 -10 -23 -7 0 -10 -140 -10 -401 0 -334 2 -403 14 -415 12
-12 151 -14 940 -14 l926 0 0 -591 c0 -498 -2 -593 -14 -605 -12 -12 -149 -14
-926 -14 -777 0 -914 -2 -926 -14 -12 -12 -14 -81 -14 -413 0 -387 1 -399 20
-413 11 -8 20 -25 20 -37 0 -13 5 -23 10 -23 6 0 10 -7 10 -15 0 -22 66 -85
89 -85 11 0 22 6 25 13 5 10 7 10 12 0 10 -21 53 -15 79 12 18 18 25 35 25 65
0 22 -4 40 -10 40 -5 0 -10 9 -10 20 0 11 5 20 10 20 6 0 10 17 10 38 0 26 -6
42 -20 52 -11 8 -20 18 -20 22 0 4 9 8 20 8 30 0 29 75 -2 101 l-21 19 21 19
c30 25 31 91 2 91 -11 0 -20 4 -20 8 0 4 9 14 20 22 15 11 20 26 20 57 0 36
-3 43 -20 43 -17 0 -20 7 -20 50 l0 50 915 0 c603 0 915 3 915 10 0 6 5 10 11
10 39 0 39 -6 39 835 0 841 0 835 -39 835 -6 0 -11 5 -11 10 0 6 -37 10 -90
10 l-90 0 0 665 c0 437 -3 665 -10 665 -6 0 -10 -48 -10 -125z m-1670 -505 c0
-5 9 -10 20 -10 11 0 20 -4 20 -8 0 -4 -9 -14 -20 -22 -15 -11 -20 -26 -20
-57 0 -36 3 -43 20 -43 11 0 20 -4 20 -8 0 -4 -9 -14 -20 -22 -14 -10 -20 -26
-20 -52 0 -31 4 -38 20 -38 13 0 20 -7 20 -20 0 -13 -7 -20 -20 -20 -30 0 -29
-75 2 -101 l21 -19 -21 -19 c-12 -10 -22 -29 -22 -41 0 -12 10 -31 22 -41 l21
-19 -21 -19 c-19 -16 -22 -29 -22 -100 l0 -81 835 0 835 0 0 -30 c0 -16 5 -30
10 -30 6 0 10 14 10 30 l0 30 76 0 c52 0 80 -4 90 -14 12 -12 14 -132 14 -795
0 -514 -3 -781 -10 -781 -5 0 -10 -9 -10 -20 0 -20 -7 -20 -925 -20 l-925 0 0
-80 c0 -47 4 -80 10 -80 6 0 10 -6 10 -14 0 -8 6 -16 13 -19 8 -3 5 -11 -10
-24 -29 -26 -29 -60 -1 -84 l21 -19 -21 -19 c-22 -18 -31 -71 -12 -71 6 0 10
-6 10 -14 0 -8 6 -16 13 -19 8 -3 5 -11 -10 -24 -31 -27 -33 -93 -3 -93 13 0
20 -7 20 -20 0 -13 -7 -20 -20 -20 -17 0 -20 -7 -20 -45 0 -38 3 -45 20 -45
13 0 20 -7 20 -20 0 -18 -7 -20 -61 -20 -64 0 -89 13 -89 47 0 10 -9 25 -20
33 -11 8 -20 22 -20 32 0 10 -4 18 -10 18 -6 0 -10 135 -10 385 l0 385 926 0
c789 0 928 2 940 14 12 12 14 112 14 645 l0 631 -940 0 -940 0 0 385 c0 250 4
385 10 385 6 0 10 9 10 20 0 11 3 20 8 20 4 0 14 15 21 33 17 36 35 57 50 57
6 0 11 5 11 10 0 6 14 10 30 10 17 0 30 -4 30 -10z"/>
<path d="M9670 4915 c0 -549 2 -625 15 -625 13 0 15 60 15 480 l0 480 30 0
c17 0 30 -4 30 -10 0 -5 23 -10 50 -10 28 0 50 -4 50 -10 0 -5 9 -10 20 -10
13 0 20 7 20 20 0 19 7 20 115 20 70 0 115 4 115 10 0 6 -42 10 -105 10 -98 0
-105 1 -105 20 0 17 -7 20 -40 20 -22 0 -40 -4 -40 -10 0 -6 -30 -10 -70 -10
l-70 0 0 125 c0 104 -2 125 -15 125 -13 0 -15 -76 -15 -625z"/>
<path d="M8440 5380 c0 -18 7 -20 55 -20 l55 0 0 -40 c0 -35 -7 -47 -45 -85
-24 -25 -49 -45 -55 -45 -5 0 -10 -13 -10 -30 l0 -30 75 0 c68 0 75 2 75 20 0
17 -7 20 -50 20 -27 0 -50 3 -50 6 0 3 23 27 50 54 42 41 50 55 50 85 0 55
-35 85 -100 85 -43 0 -50 -3 -50 -20z"/>
<path d="M8840 5382 c0 -10 -9 -24 -20 -32 -11 -8 -20 -18 -20 -23 0 -5 -13
-22 -30 -37 -18 -17 -30 -38 -30 -54 0 -25 2 -26 60 -26 l60 0 0 -40 c0 -22 5
-40 10 -40 6 0 10 18 10 40 0 30 4 40 16 40 8 0 12 5 9 10 -3 6 -1 10 4 10 6
0 11 5 11 10 0 6 -9 10 -20 10 -18 0 -20 7 -20 75 0 68 -2 75 -20 75 -13 0
-20 -7 -20 -18z m20 -87 l0 -45 -40 0 c-22 0 -40 3 -40 6 0 3 14 19 30 34 17
15 30 33 30 39 0 6 5 11 10 11 6 0 10 -20 10 -45z"/>
<path d="M8650 5150 c0 -13 7 -20 20 -20 13 0 20 7 20 20 0 13 -7 20 -20 20
-13 0 -20 -7 -20 -20z"/>
<path d="M933 4945 c-17 -18 -19 -3195 -3 -3195 7 0 10 -208 10 -605 0 -397 3
-605 10 -605 6 0 10 52 10 135 0 128 1 135 20 135 11 0 20 -4 20 -10 0 -5 25
-10 55 -10 30 0 55 -4 55 -10 0 -5 14 -10 30 -10 23 0 30 4 30 20 0 20 7 20
845 20 557 0 845 3 845 10 0 7 -288 10 -845 10 -838 0 -845 0 -845 20 0 17 -7
20 -45 20 -25 0 -45 -4 -45 -10 0 -6 -27 -10 -60 -10 l-60 0 0 460 0 460 2145
0 2145 0 0 -460 0 -460 -50 0 c-27 0 -50 5 -50 10 0 6 -22 10 -50 10 -43 0
-50 -3 -50 -20 0 -20 -7 -20 -835 -20 -550 0 -835 -3 -835 -10 0 -7 285 -10
835 -10 828 0 835 0 835 -20 0 -16 7 -20 30 -20 17 0 30 5 30 10 0 6 23 10 50
10 28 0 50 5 50 10 0 6 9 10 20 10 19 0 20 -7 20 -135 0 -113 2 -135 15 -135
13 0 15 22 15 135 0 83 4 135 10 135 6 0 10 9 10 20 0 11 -4 20 -10 20 -7 0
-10 157 -10 450 0 293 3 450 10 450 7 0 10 542 10 1605 l0 1605 -2177 0
c-1868 -1 -2180 -3 -2190 -15z m4317 -485 l0 -460 -1059 0 c-838 0 -1061 3
-1065 13 -5 10 -7 10 -12 0 -4 -10 -227 -13 -1066 -13 -905 0 -1062 2 -1074
14 -19 20 -21 869 -1 891 10 12 315 14 2145 15 l2132 0 0 -460z m-2140 -540
c0 -22 5 -40 10 -40 6 0 10 18 10 40 l0 40 1060 0 1060 0 0 -605 0 -605 -1060
0 -1060 0 0 40 c0 22 -4 40 -10 40 -5 0 -10 -12 -10 -26 0 -51 -11 -54 -234
-54 -113 0 -206 4 -206 8 0 4 9 14 20 22 11 8 20 22 20 32 0 10 5 18 10 18 6
0 10 7 10 15 0 8 -4 15 -10 15 -5 0 -10 -6 -10 -13 0 -7 -9 -19 -20 -27 -11
-8 -20 -20 -20 -28 0 -43 16 -42 -869 -42 l-841 0 0 605 0 605 1075 0 1075 0
0 -40z m-520 -1230 c0 -11 -5 -20 -10 -20 -17 0 -60 -47 -60 -66 0 -9 -13 -29
-30 -44 -17 -15 -30 -33 -30 -40 0 -6 -18 -29 -40 -50 -22 -21 -40 -45 -40
-52 0 -7 -9 -20 -20 -28 -11 -8 -20 -20 -20 -27 0 -7 -7 -13 -15 -13 -8 0 -15
-7 -15 -16 0 -9 -13 -29 -30 -44 -17 -15 -30 -33 -30 -39 0 -7 -11 -23 -25
-36 -23 -24 -30 -25 -145 -25 -73 0 -120 -4 -120 -10 0 -6 47 -10 120 -10
l121 0 44 45 c25 24 45 49 45 55 0 12 24 40 35 40 13 0 55 50 55 66 0 9 14 29
30 44 17 15 30 33 30 40 0 7 14 25 30 40 17 15 30 33 30 40 0 7 13 25 30 40
17 15 30 37 30 49 0 12 5 21 11 21 6 0 24 14 39 30 l28 30 235 0 c179 0 237
-3 241 -12 5 -10 7 -10 12 0 4 9 227 12 1065 12 l1059 0 0 -450 0 -450 -2145
0 -2145 0 0 450 0 450 815 0 c808 0 815 0 815 -20z"/>
<path d="M3040 3760 c0 -5 -18 -10 -40 -10 -22 0 -40 -4 -40 -10 0 -5 -9 -10
-20 -10 -11 0 -20 -4 -20 -10 0 -5 -7 -10 -16 -10 -9 0 -29 -13 -44 -30 -15
-16 -31 -30 -34 -30 -11 0 -56 -48 -56 -60 0 -5 -4 -10 -10 -10 -5 0 -10 -9
-10 -20 0 -11 -4 -20 -10 -20 -5 0 -10 -9 -10 -20 0 -11 -4 -20 -10 -20 -5 0
-10 -22 -10 -50 0 -27 -4 -50 -10 -50 -5 0 -10 -20 -10 -45 0 -25 5 -45 10
-45 6 0 10 -18 10 -40 0 -22 5 -40 10 -40 6 0 10 -13 10 -28 0 -16 8 -34 20
-42 11 -8 20 -22 20 -32 0 -10 5 -18 10 -18 6 0 10 -5 10 -11 0 -14 25 -39 39
-39 6 0 11 -9 11 -20 0 -11 -5 -20 -10 -20 -15 0 -120 -107 -120 -123 0 -7 9
-19 20 -27 11 -8 20 -20 20 -27 0 -7 9 -13 20 -13 15 0 20 7 20 25 0 14 5 25
10 25 6 0 10 9 10 20 0 11 7 20 15 20 8 0 15 9 15 20 0 11 5 20 10 20 6 0 10
7 10 16 0 22 32 53 38 36 2 -6 12 -12 23 -12 10 0 19 -4 19 -10 0 -5 9 -10 20
-10 11 0 20 -4 20 -10 0 -6 48 -10 125 -10 77 0 125 4 125 10 0 6 14 10 30 10
17 0 30 5 30 10 0 6 7 10 15 10 8 0 15 5 15 10 0 6 7 10 15 10 16 0 85 63 85
77 0 5 9 15 20 23 11 8 20 22 20 32 0 10 5 18 10 18 6 0 10 9 10 20 0 11 5 20
10 20 6 0 10 18 10 40 0 22 5 40 10 40 6 0 10 28 10 65 0 37 -4 65 -10 65 -5
0 -10 18 -10 40 0 22 -4 40 -10 40 -5 0 -10 9 -10 20 0 11 -4 20 -10 20 -5 0
-10 9 -10 20 0 11 -4 20 -10 20 -5 0 -10 7 -10 15 0 8 -4 15 -10 15 -5 0 -10
7 -10 16 0 19 -24 44 -42 44 -8 0 -20 9 -28 20 -8 11 -25 20 -37 20 -13 0 -23
5 -23 10 0 6 -9 10 -20 10 -11 0 -20 5 -20 10 0 6 -13 10 -30 10 -16 0 -30 5
-30 10 0 6 -32 10 -75 10 -43 0 -75 -4 -75 -10z m130 -40 c0 -5 14 -10 30 -10
17 0 30 -4 30 -10 0 -5 14 -10 30 -10 17 0 30 -4 30 -10 0 -5 7 -10 15 -10 8
0 15 -4 15 -10 0 -5 7 -10 16 -10 20 0 42 -22 46 -46 2 -10 15 -31 31 -46 16
-15 27 -37 27 -52 0 -14 5 -26 10 -26 6 0 10 -18 10 -39 0 -22 5 -42 13 -44 9
-4 8 -8 -3 -17 -11 -9 -12 -13 -2 -17 14 -6 17 -53 2 -53 -5 0 -10 -18 -10
-40 0 -22 -4 -40 -10 -40 -5 0 -10 -9 -10 -20 0 -11 -4 -20 -10 -20 -5 0 -10
-7 -10 -16 0 -9 -13 -29 -30 -44 -16 -15 -30 -31 -30 -34 0 -15 -51 -56 -70
-56 -11 0 -20 -4 -20 -10 0 -5 -9 -10 -20 -10 -11 0 -20 -4 -20 -10 0 -6 -45
-10 -115 -10 -70 0 -115 4 -115 10 0 6 -13 10 -28 10 -16 0 -34 8 -42 20 -8
11 -20 20 -28 20 -14 0 -42 23 -42 35 0 10 -28 35 -39 35 -6 0 -11 8 -11 18 0
10 -9 24 -20 32 -11 8 -20 22 -20 32 0 10 -4 18 -10 18 -6 0 -10 48 -10 125 0
77 4 125 10 125 6 0 10 9 10 20 0 11 5 20 10 20 6 0 10 7 10 16 0 18 23 44 39
44 6 0 11 5 11 10 0 22 90 100 115 100 14 0 25 5 25 10 0 6 14 10 30 10 17 0
30 5 30 10 0 6 28 10 65 10 37 0 65 -4 65 -10z"/>
<path d="M3110 3505 l0 -125 -135 0 c-83 0 -135 -4 -135 -10 0 -6 48 -10 125
-10 104 0 125 -2 125 -15 0 -8 5 -15 10 -15 6 0 10 -48 10 -125 0 -77 4 -125
10 -125 6 0 10 53 10 140 l0 140 125 0 c77 0 125 4 125 10 0 6 -48 10 -125 10
l-125 0 0 125 c0 77 -4 125 -10 125 -6 0 -10 -48 -10 -125z"/>
<path d="M2440 3370 c0 -6 32 -10 75 -10 43 0 75 4 75 10 0 6 -32 10 -75 10
-43 0 -75 -4 -75 -10z"/>
<path d="M3650 3370 c0 -6 27 -10 60 -10 33 0 60 4 60 10 0 6 -27 10 -60 10
-33 0 -60 -4 -60 -10z"/>
<path d="M1610 2330 c0 -11 -7 -20 -15 -20 -8 0 -15 -4 -15 -10 0 -5 -25 -10
-55 -10 -46 0 -60 -4 -80 -25 -14 -13 -25 -31 -25 -40 0 -8 -4 -15 -10 -15 -5
0 -10 -18 -10 -40 0 -22 5 -40 10 -40 6 0 10 -11 10 -25 0 -14 5 -25 10 -25 6
0 10 -13 10 -30 0 -16 -4 -30 -10 -30 -5 0 -10 -9 -10 -20 0 -27 7 -25 40 10
23 25 36 30 74 30 25 0 46 5 46 10 0 6 9 10 21 10 29 0 49 24 49 59 0 17 5 31
10 31 6 0 10 9 10 20 0 11 -4 20 -10 20 -5 0 -10 12 -10 26 0 15 -10 35 -22
47 -16 13 -19 21 -10 24 6 3 12 13 12 24 0 10 5 19 10 19 6 0 10 5 10 10 0 6
-9 10 -20 10 -13 0 -20 -7 -20 -20z m-50 -78 c0 -10 -9 -24 -20 -32 -11 -8
-20 -22 -20 -32 0 -10 -4 -18 -10 -18 -5 0 -10 -9 -10 -20 0 -11 -4 -20 -10
-20 -5 0 -10 -7 -10 -15 0 -8 -9 -15 -20 -15 -18 0 -20 7 -20 60 0 49 4 65 23
85 28 30 97 36 97 7z m58 -34 c17 -17 15 -106 -2 -124 -8 -8 -24 -14 -35 -14
-12 0 -21 -4 -21 -10 0 -5 -13 -10 -30 -10 -23 0 -30 4 -30 20 0 11 5 20 10
20 6 0 10 11 10 25 0 14 5 25 10 25 6 0 10 7 10 15 0 18 40 63 56 64 5 1 15
-4 22 -11z"/>
<path d="M1723 2295 c-7 -8 -13 -21 -13 -30 0 -8 -4 -15 -10 -15 -20 0 -10
-51 15 -75 18 -19 35 -25 70 -25 25 0 45 -4 45 -10 0 -5 -4 -10 -10 -10 -5 0
-10 -11 -10 -25 0 -18 -5 -25 -20 -25 -11 0 -20 -4 -20 -10 0 -5 -13 -10 -30
-10 -16 0 -30 -4 -30 -10 0 -5 22 -10 48 -10 36 0 51 5 62 20 8 11 20 20 27
20 9 0 13 18 13 61 0 45 3 58 13 53 10 -6 10 -4 0 7 -7 7 -13 26 -13 41 0 16
-5 28 -13 28 -7 0 -19 9 -27 20 -17 24 -78 27 -97 5z m82 -30 c41 -40 26 -95
-25 -95 -31 0 -50 24 -50 64 0 29 4 36 20 36 11 0 20 5 20 10 0 16 9 12 35
-15z"/>
<path d="M10630 4200 c0 -7 -145 -10 -415 -10 -270 0 -415 -3 -415 -10 0 -7
142 -10 405 -10 l405 0 0 -55 c0 -30 -4 -55 -10 -55 -5 0 -10 -22 -10 -50 0
-43 3 -50 20 -50 19 0 20 -7 20 -95 0 -57 4 -95 10 -95 6 0 10 38 10 95 0 95
0 95 25 95 21 0 25 5 25 30 0 17 -4 30 -10 30 -5 0 -10 25 -10 55 0 42 -3 55
-15 55 -8 0 -15 9 -15 20 0 19 7 20 140 20 87 0 140 4 140 10 0 6 -53 10 -140
10 -87 0 -140 4 -140 10 0 6 -4 10 -10 10 -5 0 -10 -4 -10 -10z"/>
<path d="M10740 3625 c0 -36 -3 -65 -6 -65 -8 0 -34 27 -34 35 0 10 -28 35
-39 35 -6 0 -11 5 -11 10 0 6 -9 10 -20 10 -11 0 -20 5 -20 10 0 21 -70 10
-95 -15 -25 -24 -35 -85 -15 -85 6 0 10 -9 10 -20 0 -13 7 -20 20 -20 11 0 20
5 20 11 0 5 -4 7 -10 4 -6 -4 -10 13 -10 44 0 51 0 51 33 51 40 0 87 -20 87
-37 0 -7 5 -13 11 -13 6 0 24 -13 39 -30 49 -52 60 -42 60 55 0 50 -4 85 -10
85 -6 0 -10 -28 -10 -65z"/>
<path d="M10720 3460 c0 -13 7 -20 20 -20 13 0 20 7 20 20 0 13 -7 20 -20 20
-13 0 -20 -7 -20 -20z"/>
<path d="M10570 3390 c0 -5 -7 -10 -16 -10 -18 0 -44 -23 -44 -39 0 -6 -4 -11
-10 -11 -20 0 -10 -51 15 -76 21 -21 33 -25 80 -23 46 2 55 5 55 21 0 10 7 18
15 18 10 0 15 10 15 30 0 20 -5 30 -15 30 -8 0 -15 7 -15 15 0 9 9 15 25 15
14 0 25 -6 25 -13 0 -7 9 -19 20 -27 12 -8 20 -26 20 -42 0 -21 5 -28 20 -28
15 0 20 7 20 24 0 14 -4 28 -10 31 -5 3 -10 17 -10 31 0 17 -5 24 -20 24 -11
0 -20 5 -20 10 0 6 -9 10 -20 10 -11 0 -20 5 -20 10 0 6 -25 10 -55 10 -30 0
-55 -4 -55 -10z m60 -71 c0 -45 -17 -69 -50 -69 -12 0 -28 6 -36 14 -16 17
-19 66 -4 66 6 0 10 7 10 15 0 11 11 15 40 15 l40 0 0 -41z"/>
<path d="M10740 3150 c0 -19 -7 -20 -115 -20 l-115 0 0 -25 c0 -14 5 -25 10
-25 6 0 10 -9 10 -20 0 -11 5 -20 10 -20 6 0 10 9 10 20 0 19 7 20 95 20 88 0
95 -1 95 -20 0 -11 5 -20 10 -20 6 0 10 28 10 65 0 37 -4 65 -10 65 -5 0 -10
-9 -10 -20z"/>
<path d="M10630 2845 c0 -88 -1 -95 -20 -95 -17 0 -20 -7 -20 -50 0 -27 5 -50
10 -50 6 0 10 -25 10 -55 l0 -55 -405 0 c-263 0 -405 -3 -405 -10 0 -7 145
-10 414 -10 322 0 416 -3 420 -12 5 -10 7 -10 12 0 4 9 43 12 145 12 86 0 139
4 139 10 0 6 -53 10 -140 10 -133 0 -140 1 -140 20 0 11 7 20 15 20 12 0 15
13 15 55 0 30 5 55 10 55 6 0 10 14 10 30 0 25 -4 30 -25 30 -25 0 -25 0 -25
95 0 57 -4 95 -10 95 -6 0 -10 -38 -10 -95z"/>
<path d="M9670 1760 c0 -433 -3 -660 -10 -660 -5 0 -10 5 -10 10 0 6 -22 10
-50 10 -38 0 -50 4 -50 15 0 11 -11 15 -40 15 -36 0 -40 -2 -40 -25 l0 -25
-285 0 c-183 0 -285 -4 -285 -10 0 -6 102 -10 285 -10 183 0 285 -4 285 -10 0
-5 -4 -10 -10 -10 -5 0 -10 -4 -10 -10 0 -5 18 -10 40 -10 22 0 40 5 40 10 0
6 23 10 50 10 28 0 50 5 50 10 0 6 9 10 20 10 19 0 20 -7 20 -135 0 -113 2
-135 15 -135 13 0 15 96 15 805 0 709 -2 805 -15 805 -13 0 -15 -80 -15 -660z"/>
<path d="M7590 1320 c0 -339 3 -510 10 -510 6 0 10 50 10 135 0 128 1 135 20
135 11 0 20 -4 20 -10 0 -5 25 -10 55 -10 30 0 55 -4 55 -10 0 -5 18 -10 40
-10 33 0 40 3 40 20 0 20 7 20 270 20 173 0 270 4 270 10 0 6 -97 10 -270 10
l-270 0 0 25 c0 23 -4 25 -40 25 -29 0 -40 -4 -40 -15 0 -11 -13 -15 -54 -15
-34 0 -56 -5 -58 -12 -3 -9 -9 -8 -21 4 -15 15 -17 53 -17 367 0 219 -4 351
-10 351 -6 0 -9 -189 -10 -510z"/>
<path d="M8483 1215 c-20 -22 -16 -25 37 -25 41 0 50 -3 51 -17 2 -36 -3 -68
-12 -71 -5 -2 -9 -10 -9 -19 0 -8 -18 -32 -40 -53 -62 -59 -55 -70 40 -70 44
0 80 3 80 6 0 16 -33 34 -64 34 -20 0 -36 3 -36 6 0 3 14 19 30 34 17 15 30
35 30 44 0 9 5 16 10 16 16 0 12 99 -4 116 -19 18 -97 18 -113 -1z"/>
<path d="M8760 1215 c0 -18 -43 -65 -60 -65 -5 0 -10 -6 -10 -13 0 -7 -9 -19
-20 -27 -12 -8 -20 -26 -20 -42 0 -28 1 -28 65 -28 l65 0 0 -40 c0 -22 5 -40
10 -40 6 0 10 17 10 38 0 26 6 42 20 52 11 8 20 18 20 22 0 4 -9 8 -20 8 -18
0 -20 7 -20 75 0 68 -2 75 -20 75 -11 0 -20 -7 -20 -15z m20 -90 l0 -45 -45 0
c-25 0 -45 5 -45 10 0 6 5 10 11 10 11 0 39 25 39 35 0 9 24 34 33 35 4 0 7
-20 7 -45z"/>
<path d="M2940 887 l0 -73 46 -3 c26 -1 53 -8 60 -16 17 -17 18 -29 2 -19 -8
5 -7 0 2 -11 9 -11 10 -16 3 -11 -8 4 -13 2 -13 -4 0 -18 -27 -40 -50 -40 -12
0 -18 5 -15 10 3 6 -3 10 -14 10 -14 0 -21 -6 -21 -20 0 -18 7 -20 60 -20 33
0 60 4 60 10 0 6 7 10 15 10 12 0 15 13 15 60 0 57 -1 60 -25 60 -14 0 -25 5
-25 10 0 6 -13 10 -30 10 -28 0 -30 3 -30 35 l0 35 55 0 c48 0 55 2 55 20 0
18 -7 20 -75 20 l-75 0 0 -73z"/>
<path d="M3153 935 c-20 -22 -23 -35 -23 -115 0 -53 4 -90 10 -90 6 0 10 -9
10 -20 0 -17 7 -20 46 -20 47 0 74 16 74 44 0 9 5 16 10 16 6 0 10 32 10 75 0
43 -4 75 -10 75 -5 0 -10 7 -10 16 0 47 -79 60 -117 19z m57 -5 c0 -5 9 -10
20 -10 19 0 20 -7 20 -91 0 -65 -4 -94 -14 -105 -33 -32 -66 -4 -66 56 0 30
-3 39 -12 34 -10 -6 -10 -4 0 7 6 7 12 30 12 51 0 22 6 45 13 53 14 17 27 19
27 5z"/>
</g>
</svg>
