{
    "asset" : {
        "generator" : "Khronos glTF Blender I/O v3.4.50",
        "version" : "2.0"
    },
    "scene" : 0,
    "scenes" : [
        {
            "name" : "Scene",
            "nodes" : [
                0
            ]
        }
    ],
    "nodes" : [
        {
            "mesh" : 0,
            "name" : "Z"
        }
    ],
    "meshes" : [
        {
            "name" : "Z.001",
            "primitives" : [
                {
                    "attributes" : {
                        "POSITION" : 0,
                        "NORMAL" : 1
                    },
                    "indices" : 2
                }
            ]
        }
    ],
    "accessors" : [
        {
            "bufferView" : 0,
            "componentType" : 5126,
            "count" : 39946,
            "max" : [
                27.899999618530273,
                50,
                3.261072347066524e-16
            ],
            "min" : [
                -2.799999952316284,
                -4.440892098500626e-15,
                -27
            ],
            "type" : "VEC3"
        },
        {
            "bufferView" : 1,
            "componentType" : 5126,
            "count" : 39946,
            "type" : "VEC3"
        },
        {
            "bufferView" : 2,
            "componentType" : 5123,
            "count" : 48702,
            "type" : "SCALAR"
        }
    ],
    "bufferViews" : [
        {
            "buffer" : 0,
            "byteLength" : 479352,
            "byteOffset" : 0,
            "target" : 34962
        },
        {
            "buffer" : 0,
            "byteLength" : 479352,
            "byteOffset" : 479352,
            "target" : 34962
        },
        {
            "buffer" : 0,
            "byteLength" : 97404,
            "byteOffset" : 958704,
            "target" : 34963
        }
    ],
    "buffers" : [
        {
            "byteLength" : 1056108,
            "uri" : "data:application/octet-stream;base64,"
        }
    ]
}
