<?xml version="1.0" standalone="no"?>
<!DOCTYPE svg PUBLIC "-//W3C//DTD SVG 20010904//EN"
 "http://www.w3.org/TR/2001/REC-SVG-20010904/DTD/svg10.dtd">
<svg version="1.0" xmlns="http://www.w3.org/2000/svg"
 width="1351.000000pt" height="603.000000pt" viewBox="0 0 1351.000000 603.000000"
 preserveAspectRatio="xMidYMid meet">

<g transform="translate(0.000000,603.000000) scale(0.100000,-0.100000)"
fill="#000000" stroke="none">
<path d="M7920 5345 c0 -77 -4 -125 -10 -125 -5 0 -10 -11 -10 -25 0 -14 5
-25 10 -25 7 0 10 -158 10 -455 0 -297 3 -455 10 -455 7 0 10 158 10 455 l0
455 35 0 c19 0 35 -4 35 -10 0 -5 23 -10 50 -10 28 0 50 -4 50 -10 0 -5 9 -10
20 -10 13 0 20 7 20 20 0 20 7 20 305 20 264 0 305 2 305 15 0 13 -41 15 -305
15 l-305 0 0 30 c0 17 -4 30 -10 30 -5 0 -10 -4 -10 -10 0 -5 -18 -10 -40 -10
-22 0 -40 -4 -40 -10 0 -5 -25 -10 -55 -10 l-55 0 0 125 c0 77 -4 125 -10 125
-6 0 -10 -48 -10 -125z"/>
<path d="M10090 5345 l0 -125 -60 0 c-33 0 -60 4 -60 10 0 6 -25 10 -55 10
-48 0 -55 -2 -55 -20 0 -20 -7 -20 -290 -20 -251 0 -290 -2 -290 -15 0 -13 39
-15 290 -15 283 0 290 0 290 -20 0 -16 7 -20 30 -20 17 0 30 5 30 10 0 6 25
10 55 10 30 0 55 5 55 10 0 6 14 10 30 10 l30 0 0 -385 0 -385 -905 0 c-597 0
-905 -3 -905 -10 0 -7 304 -10 891 -10 758 0 893 -2 905 -14 11 -12 14 -65 14
-290 0 -177 4 -276 10 -276 6 0 10 103 10 290 l0 290 1265 0 c1258 0 1265 0
1265 -20 0 -11 -7 -20 -15 -20 -11 0 -15 -12 -15 -50 0 -27 -4 -50 -10 -50 -5
0 -10 -20 -10 -45 0 -41 2 -45 25 -45 l25 0 0 -335 c0 -217 4 -335 10 -335 6
0 10 118 10 335 0 328 0 335 20 335 17 0 20 7 20 45 0 25 -4 45 -10 45 -5 0
-10 22 -10 49 0 30 -5 51 -12 53 -9 3 -8 9 4 21 14 14 38 17 137 17 74 0 121
4 121 10 0 7 -477 10 -1410 10 l-1410 0 0 535 c0 350 -3 535 -10 535 -6 0 -10
-48 -10 -125z"/>
<path d="M8840 5300 c0 -17 7 -20 50 -20 49 0 50 -1 50 -30 0 -16 -4 -30 -10
-30 -5 0 -10 -9 -10 -21 0 -11 -22 -42 -50 -69 -73 -71 -69 -80 35 -80 78 0
85 2 85 20 0 18 -7 20 -55 20 -30 0 -55 2 -55 5 0 10 69 75 80 75 5 0 10 11
10 25 0 14 5 25 10 25 6 0 10 12 10 26 0 26 -20 54 -39 54 -6 0 -11 5 -11 10
0 6 -22 10 -50 10 -43 0 -50 -3 -50 -20z"/>
<path d="M9050 5246 l0 -76 36 0 c19 0 42 -6 50 -14 17 -18 18 -53 2 -69 -17
-16 -68 -21 -68 -8 0 6 -9 11 -20 11 -13 0 -20 -7 -20 -20 0 -18 7 -20 56 -20
57 0 84 14 84 44 0 9 5 16 10 16 6 0 10 12 10 26 0 14 -4 23 -10 19 -5 -3 -10
3 -10 15 0 31 -24 50 -64 50 -33 0 -36 2 -36 30 0 29 1 30 48 30 35 0 50 5 59
19 11 17 7 18 -58 20 l-69 2 0 -75z"/>
<path d="M1720 4383 c-10 -12 -11 -18 -2 -21 15 -5 17 -212 2 -212 -5 0 -10
-9 -10 -20 0 -11 5 -20 10 -20 6 0 10 -107 10 -300 0 -193 -4 -300 -10 -300
-5 0 -10 -16 -10 -35 0 -19 5 -35 10 -35 6 0 10 -93 10 -260 l0 -260 -565 0
c-370 0 -565 -3 -565 -10 0 -6 48 -10 125 -10 l125 0 0 -50 c0 -27 -4 -50 -10
-50 -6 0 -10 -28 -10 -65 0 -63 1 -65 25 -65 l25 0 0 -200 0 -200 -35 0 c-19
0 -35 -4 -35 -10 0 -5 5 -10 10 -10 6 0 10 -18 10 -40 0 -22 5 -40 10 -40 6 0
10 -22 10 -50 l0 -50 -125 0 -125 0 0 -25 0 -25 140 0 140 0 0 -125 c0 -77 4
-125 10 -125 6 0 10 48 10 125 l0 125 355 0 355 0 0 25 0 25 -355 0 -355 0 0
30 c0 17 5 30 10 30 6 0 10 23 10 50 0 28 5 50 10 50 6 0 10 9 10 20 0 13 -7
20 -20 20 -19 0 -20 7 -20 200 0 193 1 200 20 200 16 0 20 7 20 30 0 17 -4 30
-10 30 -5 0 -10 20 -10 45 0 25 -4 45 -10 45 -5 0 -10 18 -10 40 l0 40 401 0
c334 0 403 -2 415 -14 19 -20 21 -791 2 -800 -10 -5 -10 -7 0 -12 9 -4 12
-176 12 -810 0 -529 3 -804 10 -804 6 0 10 52 10 135 l0 135 30 0 c17 0 30 -4
30 -10 0 -5 25 -10 55 -10 30 0 55 -4 55 -10 0 -5 14 -10 30 -10 23 0 30 4 30
20 0 20 7 20 835 20 550 0 835 3 835 10 0 7 -285 10 -835 10 -828 0 -835 0
-835 20 0 17 -7 20 -50 20 -27 0 -50 -4 -50 -10 0 -6 -28 -10 -65 -10 l-65 0
0 625 0 625 1250 0 c1243 0 1250 0 1250 -20 0 -11 5 -20 10 -20 6 0 10 -13 10
-30 0 -20 5 -30 15 -30 8 0 15 -9 15 -20 0 -11 5 -20 10 -20 6 0 10 -13 10
-30 0 -16 5 -30 10 -30 6 0 10 -16 10 -36 0 -21 4 -33 10 -29 6 4 10 -5 10
-19 0 -14 5 -26 10 -26 6 0 10 -13 10 -30 0 -16 5 -30 10 -30 6 0 10 -9 10
-20 0 -11 5 -20 10 -20 6 0 10 -16 10 -35 0 -19 5 -35 10 -35 6 0 10 -9 10
-20 0 -11 5 -20 10 -20 6 0 10 -12 10 -26 0 -48 17 -54 159 -54 81 0 131 4
131 10 0 6 -47 10 -121 10 -124 0 -149 7 -149 44 0 9 -4 16 -10 16 -5 0 -10
14 -10 30 0 17 -4 30 -10 30 -5 0 -10 11 -10 25 0 14 -4 25 -10 25 -5 0 -10
14 -10 30 0 17 -4 30 -10 30 -5 0 -10 9 -10 20 0 11 -4 20 -10 20 -5 0 -10 14
-10 30 0 17 -4 30 -10 30 -5 0 -10 11 -10 25 0 14 -4 25 -10 25 -5 0 -10 14
-10 30 0 17 -4 30 -10 30 -5 0 -10 9 -10 20 0 11 -4 20 -10 20 -5 0 -10 14
-10 30 0 20 -5 30 -15 30 -8 0 -15 9 -15 20 0 20 7 20 900 20 l900 0 0 -625 0
-625 -65 0 c-37 0 -65 4 -65 10 0 6 -17 10 -38 10 -26 0 -42 -6 -52 -20 -14
-20 -26 -20 -847 -20 -549 0 -833 -3 -833 -10 0 -7 288 -10 845 -10 557 0 845
-3 845 -10 0 -5 -4 -10 -10 -10 -5 0 -10 -4 -10 -10 0 -5 14 -10 30 -10 17 0
30 5 30 10 0 6 23 10 50 10 28 0 50 5 50 10 0 6 16 10 35 10 l35 0 0 -135 c0
-83 4 -135 10 -135 7 0 10 267 10 780 0 513 3 780 10 780 7 0 10 403 10 1190
l0 1190 -2187 0 c-2016 -1 -2189 -2 -2203 -17z m4350 -128 c0 -63 -4 -105 -10
-105 -5 0 -10 -9 -10 -20 0 -11 5 -20 10 -20 6 0 10 -107 10 -300 0 -193 -4
-300 -10 -300 -5 0 -10 -11 -10 -25 l0 -25 -1065 0 -1065 0 0 95 c0 57 -4 95
-10 95 -6 0 -10 -38 -10 -95 l0 -95 -1065 0 -1065 0 0 450 0 450 2150 0 2150
0 0 -105z m0 -1496 c0 -559 -2 -663 -14 -675 -12 -12 -147 -14 -906 -14 -946
0 -920 -1 -920 44 0 9 -4 16 -10 16 -5 0 -10 14 -10 30 0 17 -4 30 -10 30 -5
0 -10 12 -10 26 0 14 -4 23 -10 19 -5 -3 -10 -15 -10 -26 0 -10 5 -19 10 -19
6 0 10 -13 10 -30 0 -16 5 -30 10 -30 6 0 10 -13 10 -30 l0 -30 -1220 0 -1220
0 0 415 0 415 635 0 c417 0 635 3 635 10 0 7 -218 10 -635 10 l-635 0 0 250 0
250 2150 0 2150 0 0 -661z"/>
<path d="M3820 3390 c0 -5 -20 -10 -45 -10 -25 0 -45 -4 -45 -10 0 -5 -9 -10
-20 -10 -11 0 -20 -4 -20 -10 0 -5 -8 -10 -18 -10 -10 0 -24 -9 -32 -20 -8
-11 -20 -20 -28 -20 -16 0 -42 -24 -42 -39 0 -6 -5 -11 -11 -11 -15 0 -39 -26
-39 -42 0 -8 -9 -20 -20 -28 -11 -8 -20 -22 -20 -32 0 -10 -4 -18 -10 -18 -5
0 -10 -9 -10 -20 0 -11 -4 -20 -10 -20 -5 0 -10 -13 -10 -30 0 -16 -5 -30 -11
-30 -8 0 -7 -6 2 -17 10 -11 10 -14 2 -9 -10 5 -13 -17 -13 -98 0 -64 4 -106
10 -106 6 0 10 -16 10 -35 0 -19 5 -35 10 -35 6 0 10 -13 10 -28 0 -16 8 -34
20 -42 11 -8 20 -20 20 -28 0 -13 44 -62 55 -62 8 0 35 -27 35 -35 0 -12 28
-35 42 -35 8 0 20 -9 28 -20 8 -12 26 -20 42 -20 15 0 28 -4 28 -10 0 -5 14
-10 30 -10 17 0 30 -4 30 -10 0 -6 45 -10 115 -10 70 0 115 4 115 10 0 6 16
10 35 10 l35 0 0 -60 c0 -33 4 -60 10 -60 6 0 10 -20 10 -45 0 -43 12 -60 23
-32 4 9 8 8 16 -3 9 -13 14 -11 36 12 30 33 32 59 5 78 -11 8 -20 21 -20 30 0
9 -9 22 -20 30 -11 8 -20 22 -20 32 0 10 -4 18 -10 18 -5 0 -10 5 -10 10 0 6
8 10 18 10 10 0 24 9 32 20 8 11 20 20 28 20 14 0 42 23 42 35 0 8 47 55 55
55 12 0 35 29 35 44 0 9 5 16 10 16 6 0 10 9 10 20 0 11 5 20 10 20 6 0 10 9
10 20 0 11 5 20 10 20 6 0 10 16 10 35 0 19 5 35 10 35 6 0 10 40 10 100 0 60
-4 100 -10 100 -5 0 -10 20 -10 45 0 25 -4 45 -10 45 -5 0 -10 9 -10 20 0 11
-4 20 -10 20 -5 0 -10 8 -10 18 0 10 -9 24 -20 32 -11 8 -20 22 -20 32 0 10
-5 18 -11 18 -11 0 -39 25 -39 35 0 12 -28 35 -42 35 -8 0 -20 9 -28 20 -8 11
-22 20 -32 20 -10 0 -18 5 -18 10 0 6 -9 10 -20 10 -11 0 -20 5 -20 10 0 6
-20 10 -45 10 -25 0 -45 5 -45 10 0 6 -37 10 -90 10 -53 0 -90 -4 -90 -10z
m160 -40 c0 -5 20 -10 45 -10 25 0 45 -4 45 -10 0 -5 9 -10 20 -10 11 0 20 -4
20 -10 0 -5 7 -10 16 -10 18 0 44 -23 44 -39 0 -6 7 -11 15 -11 18 0 65 -44
65 -60 0 -14 25 -40 39 -40 6 0 11 -9 11 -20 0 -11 5 -20 10 -20 6 0 10 -9 10
-20 0 -11 5 -20 10 -20 6 0 10 -16 10 -35 0 -19 5 -35 10 -35 6 0 10 -37 10
-90 0 -53 -4 -90 -10 -90 -5 0 -10 -16 -10 -35 0 -19 -4 -35 -10 -35 -5 0 -10
-12 -10 -26 0 -26 -20 -54 -39 -54 -6 0 -11 -7 -11 -15 0 -20 -85 -105 -105
-105 -8 0 -15 -5 -15 -11 0 -16 -26 -39 -44 -39 -9 0 -16 -4 -16 -10 0 -5 -16
-10 -35 -10 -19 0 -35 -4 -35 -10 0 -6 -45 -10 -115 -10 -70 0 -115 4 -115 10
0 6 -13 10 -30 10 -16 0 -30 5 -30 10 0 6 -7 10 -16 10 -18 0 -44 23 -44 39 0
6 -7 11 -16 11 -8 0 -33 18 -54 40 -21 22 -43 40 -49 40 -6 0 -11 8 -11 18 0
10 -9 24 -20 32 -12 8 -20 26 -20 42 0 15 -4 28 -10 28 -5 0 -10 16 -10 35 0
19 -4 35 -10 35 -6 0 -10 37 -10 90 0 53 4 90 10 90 6 0 10 16 10 35 0 19 5
35 10 35 6 0 10 9 10 20 0 11 5 20 10 20 6 0 10 9 10 20 0 11 5 20 10 20 6 0
10 7 10 15 0 9 6 12 15 9 10 -4 15 0 15 10 0 21 44 66 65 66 8 0 15 5 15 11 0
16 26 39 44 39 9 0 16 5 16 10 0 6 9 10 20 10 11 0 20 5 20 10 0 6 20 10 45
10 25 0 45 5 45 10 0 6 30 10 70 10 40 0 70 -4 70 -10z"/>
<path d="M3900 3055 l0 -135 -135 0 c-83 0 -135 -4 -135 -10 0 -6 52 -10 135
-10 l135 0 0 -135 c0 -83 4 -135 10 -135 6 0 10 52 10 135 l0 135 135 0 c83 0
135 4 135 10 0 6 -52 10 -135 10 l-135 0 0 135 c0 83 -4 135 -10 135 -6 0 -10
-52 -10 -135z"/>
<path d="M3170 2910 c0 -6 42 -10 105 -10 63 0 105 4 105 10 0 6 -42 10 -105
10 -63 0 -105 -4 -105 -10z"/>
<path d="M4440 2910 c0 -6 42 -10 105 -10 63 0 105 4 105 10 0 6 -42 10 -105
10 -63 0 -105 -4 -105 -10z"/>
<path d="M3900 2265 c0 -70 4 -115 10 -115 6 0 10 45 10 115 0 70 -4 115 -10
115 -6 0 -10 -45 -10 -115z"/>
<path d="M8030 4380 c0 -11 -4 -20 -10 -20 -5 0 -10 -9 -10 -20 0 -11 -4 -20
-10 -20 -5 0 -10 -9 -10 -20 0 -11 -7 -20 -15 -20 -8 0 -15 -9 -15 -20 0 -11
-4 -20 -10 -20 -5 0 -10 -11 -10 -25 0 -14 -4 -25 -10 -25 -5 0 -10 -9 -10
-20 0 -11 -4 -20 -10 -20 -6 0 -10 -120 -10 -340 l0 -341 25 -24 24 -25 936 0
935 0 0 -675 c0 -443 3 -675 10 -675 6 0 10 -5 10 -11 0 -31 29 -39 139 -39
l111 0 0 -249 c0 -190 -3 -251 -12 -255 -10 -5 -10 -7 0 -12 9 -4 12 -42 12
-140 0 -83 4 -134 10 -134 6 0 10 52 10 135 0 83 4 135 10 135 6 0 10 -4 10
-10 0 -5 25 -10 55 -10 30 0 55 -4 55 -10 0 -5 18 -10 40 -10 33 0 40 3 40 20
0 19 7 20 105 20 63 0 105 4 105 10 0 6 -42 10 -105 10 -98 0 -105 1 -105 20
0 16 -7 20 -30 20 -16 0 -30 -4 -30 -10 0 -5 -25 -10 -55 -10 -30 0 -55 -4
-55 -10 0 -5 -9 -10 -20 -10 -19 0 -20 7 -20 250 l0 250 226 0 c182 0 228 3
240 14 8 8 14 19 14 25 0 6 5 11 10 11 6 0 10 39 10 98 0 86 -2 99 -20 112
-11 8 -20 20 -20 27 0 10 -50 13 -230 13 l-230 0 0 681 c0 576 -2 683 -14 695
-12 12 -154 14 -960 14 l-946 0 0 65 c0 63 1 65 25 65 18 0 25 5 25 19 0 11 6
22 13 25 10 5 10 7 0 12 -7 3 -13 14 -13 25 0 10 -7 19 -15 19 -9 0 -15 9 -15
25 0 14 5 25 11 25 14 0 39 26 39 40 0 14 -25 40 -39 40 -6 0 -11 9 -11 20 0
11 5 20 11 20 14 0 39 26 39 40 0 14 -25 40 -39 40 -6 0 -11 11 -11 25 0 14 5
25 11 25 14 0 39 26 39 40 0 14 -25 40 -39 40 -6 0 -11 9 -11 20 0 11 -4 20
-10 20 -5 0 -10 9 -10 20 0 18 -7 20 -80 20 -73 0 -80 -2 -80 -20z m135 -45
c30 -29 31 -46 5 -65 -11 -8 -20 -24 -20 -35 0 -11 9 -27 20 -35 11 -8 20 -21
20 -30 0 -9 -9 -22 -20 -30 -21 -15 -28 -50 -10 -50 6 0 10 -9 10 -19 0 -11 6
-21 13 -24 8 -3 5 -11 -10 -24 -23 -20 -32 -63 -13 -63 6 0 10 -9 10 -19 0
-11 6 -21 13 -24 7 -2 -1 -16 -23 -37 -22 -21 -30 -35 -22 -37 8 -3 12 -30 12
-89 l0 -84 960 0 960 0 0 -700 0 -700 230 0 c147 0 230 -4 230 -10 0 -5 9 -10
20 -10 18 0 20 -7 20 -76 0 -52 -4 -80 -14 -90 -12 -11 -57 -14 -230 -14
l-216 0 0 40 c0 22 -4 40 -10 40 -5 0 -10 -12 -10 -26 0 -45 -20 -54 -119 -54
l-91 0 -1 28 c0 15 -1 321 -1 681 0 527 -3 657 -13 668 -11 11 -190 13 -944
13 -614 0 -931 3 -931 10 0 6 -11 10 -25 10 l-25 0 0 315 c0 203 4 315 10 315
6 0 10 14 10 30 0 20 5 30 15 30 8 0 15 9 15 20 0 11 5 20 10 20 6 0 10 11 10
25 0 14 5 25 10 25 6 0 10 9 10 20 0 11 5 20 10 20 6 0 10 7 10 15 0 48 75 61
115 20z"/>
<path d="M11590 3700 c0 -7 -238 -10 -695 -10 -457 0 -695 -3 -695 -10 0 -7
238 -10 695 -10 688 0 695 0 695 -20 0 -11 -4 -20 -10 -20 -5 0 -10 -22 -10
-50 0 -27 -4 -50 -10 -50 -5 0 -10 -16 -10 -35 0 -28 4 -35 20 -35 19 0 20 -7
20 -165 0 -103 4 -165 10 -165 6 0 10 62 10 165 l0 165 25 0 c24 0 25 3 25 55
0 42 -3 55 -15 55 -11 0 -15 12 -15 50 l0 50 125 0 c77 0 125 4 125 10 0 6
-48 10 -124 10 -73 0 -127 4 -131 10 -3 6 -13 10 -21 10 -8 0 -14 -4 -14 -10z"/>
<path d="M12510 3315 c0 -50 4 -85 10 -85 6 0 10 28 10 65 0 58 2 65 20 65 11
0 20 -4 20 -10 0 -5 9 -10 20 -10 11 0 20 -4 20 -10 0 -5 11 -10 25 -10 14 0
25 -4 25 -10 0 -5 9 -10 20 -10 11 0 20 -4 20 -10 0 -5 9 -10 20 -10 11 0 20
-7 20 -15 0 -8 9 -15 20 -15 11 0 20 5 20 10 0 17 -47 60 -65 60 -8 0 -15 5
-15 10 0 6 -9 10 -20 10 -11 0 -20 5 -20 10 0 6 -11 10 -25 10 -14 0 -25 5
-25 10 0 6 -12 10 -26 10 -14 0 -23 4 -19 10 4 6 -7 10 -24 10 l-31 0 0 -85z"/>
<path d="M7920 2055 c0 -850 -3 -1285 -10 -1285 -5 0 -10 -9 -10 -20 0 -11 5
-20 10 -20 6 0 10 -48 10 -125 0 -77 4 -125 10 -125 6 0 10 48 10 125 l0 125
25 0 c14 0 25 -4 25 -10 0 -5 23 -10 50 -10 28 0 50 -4 50 -10 0 -5 14 -10 30
-10 23 0 30 4 30 20 0 20 7 20 423 21 232 1 426 1 430 0 5 -1 6 3 2 9 -4 6
-152 10 -431 10 -417 0 -424 0 -424 20 0 17 -7 20 -50 20 -27 0 -50 -4 -50
-10 0 -5 -25 -10 -55 -10 l-55 0 0 1285 c0 850 -3 1285 -10 1285 -7 0 -10
-435 -10 -1285z"/>
<path d="M12740 3150 c0 -33 -3 -60 -6 -60 -3 0 -27 23 -54 50 -45 46 -53 50
-95 50 -62 0 -75 -15 -75 -84 0 -49 2 -56 20 -56 13 0 20 7 20 20 0 11 -4 20
-10 20 -5 0 -10 12 -10 26 0 14 4 23 10 19 6 -3 10 -1 10 4 0 6 18 11 41 11
35 0 46 -6 89 -50 34 -35 57 -50 75 -50 l26 0 -2 80 c-2 71 -4 80 -20 80 -16
0 -19 -8 -19 -60z"/>
<path d="M11530 3060 c0 -5 -7 -10 -16 -10 -28 0 -44 -27 -44 -75 0 -60 16
-75 80 -75 66 0 80 14 80 79 0 39 4 51 15 51 8 0 15 -7 15 -15 0 -8 9 -15 20
-15 17 0 20 -7 20 -40 0 -33 3 -40 20 -40 17 0 20 7 20 40 0 22 -4 40 -10 40
-5 0 -10 5 -10 11 0 20 -29 39 -59 39 -17 0 -31 5 -31 10 0 6 -22 10 -50 10
-27 0 -50 -4 -50 -10z m60 -51 c0 -11 4 -18 8 -15 19 11 7 -30 -14 -51 -24
-24 -54 -31 -54 -13 0 6 -9 10 -20 10 -16 0 -20 7 -20 30 0 17 5 30 10 30 6 0
10 7 10 15 0 11 11 15 40 15 34 0 40 -3 40 -21z"/>
<path d="M12640 2615 l0 -345 -25 0 c-23 0 -25 -4 -25 -41 0 -24 4 -38 10 -34
6 4 10 -16 10 -52 0 -35 4 -53 9 -45 7 11 10 10 15 -3 3 -9 6 -19 6 -21 0 -2
-227 -4 -505 -4 l-505 0 0 60 c0 47 3 60 15 60 11 0 15 11 15 40 0 36 -2 40
-25 40 l-25 0 0 170 c0 107 -4 170 -10 170 -6 0 -10 -63 -10 -170 0 -163 -1
-170 -20 -170 -16 0 -20 -7 -20 -30 0 -16 5 -30 10 -30 6 0 10 -22 10 -50 0
-27 5 -50 10 -50 6 0 10 -9 10 -20 0 -20 -7 -20 -445 -20 l-445 0 0 -25 0 -25
1101 0 c940 0 1103 2 1115 14 31 31 15 36 -121 36 -83 0 -135 4 -135 10 0 6 5
10 10 10 6 0 10 23 10 50 0 28 5 50 10 50 6 0 10 18 10 40 0 33 -3 40 -20 40
-20 0 -20 7 -20 345 0 223 -4 345 -10 345 -6 0 -10 -122 -10 -345z"/>
<path d="M11700 2820 c0 -19 -7 -20 -115 -20 l-115 0 0 -25 c0 -14 5 -25 10
-25 6 0 10 -9 10 -20 0 -13 7 -20 20 -20 13 0 20 7 20 20 0 18 7 20 85 20 78
0 85 -2 85 -20 0 -13 7 -20 20 -20 18 0 20 7 20 65 0 58 -2 65 -20 65 -13 0
-20 -7 -20 -20z"/>
<path d="M9840 1730 c0 -203 -1 -210 -20 -210 -11 0 -20 5 -20 10 0 6 -22 10
-50 10 -27 0 -50 5 -50 10 0 6 -16 10 -35 10 -28 0 -35 -4 -35 -20 0 -19 -7
-20 -115 -20 -70 0 -115 -4 -115 -10 0 -6 45 -10 115 -10 70 0 115 -4 115 -10
0 -5 -4 -10 -10 -10 -5 0 -10 -4 -10 -10 0 -5 25 -10 55 -10 30 0 55 5 55 10
0 6 23 10 50 10 28 0 50 5 50 10 0 6 5 10 10 10 6 0 10 -52 10 -135 0 -83 4
-135 10 -135 6 0 10 125 10 355 0 230 -4 355 -10 355 -6 0 -10 -77 -10 -210z"/>
<path d="M10570 1355 l0 -585 -50 0 c-27 0 -50 5 -50 10 0 6 -25 10 -55 10
-48 0 -55 -2 -55 -20 0 -20 -7 -20 -415 -20 -270 0 -415 -3 -415 -10 0 -7 145
-10 415 -10 408 0 415 0 415 -20 0 -13 7 -20 20 -20 11 0 20 5 20 10 0 6 25
10 55 10 30 0 55 5 55 10 0 6 14 10 30 10 l30 0 0 -135 c0 -83 4 -135 10 -135
6 0 10 51 10 134 0 98 3 136 13 140 10 5 10 7 0 12 -10 4 -13 134 -13 600 0
389 -3 594 -10 594 -7 0 -10 -202 -10 -585z"/>
<path d="M810 1680 c0 -5 -7 -10 -15 -10 -25 0 -65 -47 -65 -75 0 -14 11 -37
25 -50 20 -21 34 -25 85 -25 53 0 60 2 60 20 0 11 5 20 10 20 6 0 10 16 10 35
0 19 -4 35 -10 35 -5 0 -10 5 -10 10 0 18 31 10 55 -15 16 -15 25 -36 25 -55
0 -23 4 -30 20 -30 16 0 20 7 20 35 0 19 -4 35 -10 35 -5 0 -10 9 -10 20 0 13
-7 20 -20 20 -11 0 -20 5 -20 10 0 6 -9 10 -20 10 -11 0 -20 5 -20 10 0 6 -25
10 -55 10 -30 0 -55 -4 -55 -10z m70 -75 c0 -33 -4 -45 -15 -45 -8 0 -15 -4
-15 -10 0 -15 -49 -12 -66 4 -17 18 -18 62 -1 81 6 8 31 14 55 15 l42 0 0 -45z"/>
<path d="M8860 1630 c0 -18 7 -20 55 -20 l55 0 0 -35 c0 -24 -5 -35 -15 -35
-8 0 -15 -7 -15 -16 0 -8 -22 -37 -50 -64 -73 -71 -69 -80 34 -80 79 0 85 1
83 20 -1 17 -8 20 -54 20 -29 0 -53 2 -53 5 0 8 48 55 55 55 12 0 35 29 35 44
0 9 5 16 10 16 20 0 10 61 -15 85 -19 20 -34 25 -75 25 -43 0 -50 -3 -50 -20z"/>
<path d="M9173 1625 c-23 -25 -31 -65 -13 -65 6 0 10 -9 10 -19 0 -11 6 -21
13 -24 8 -3 5 -11 -10 -24 -22 -20 -32 -73 -14 -73 5 0 11 -9 14 -20 4 -17 14
-20 62 -20 36 0 62 5 71 14 16 17 20 106 4 106 -5 0 -10 9 -10 20 0 11 5 20
10 20 6 0 10 14 10 30 0 72 -98 108 -147 55z m93 -9 c8 -8 14 -28 14 -45 0
-28 -3 -31 -30 -31 -16 0 -30 5 -30 10 0 6 -7 10 -15 10 -9 0 -15 9 -15 25 0
16 6 25 15 25 8 0 15 5 15 10 0 15 29 12 46 -4z m0 -130 c8 -8 14 -31 14 -50
0 -33 -2 -36 -30 -36 -16 0 -30 5 -30 10 0 6 -7 10 -15 10 -11 0 -15 11 -15
40 0 38 2 40 31 40 17 0 37 -6 45 -14z"/>
<path d="M5050 1620 c0 -5 -7 -10 -15 -10 -9 0 -15 -9 -15 -25 0 -24 -3 -25
-55 -25 -50 0 -59 -3 -90 -35 -31 -31 -35 -40 -35 -87 0 -42 4 -57 20 -68 21
-15 29 -80 10 -80 -5 0 -10 -9 -10 -20 0 -11 3 -20 6 -20 11 0 34 29 34 44 0
13 12 16 60 16 47 0 60 3 60 15 0 8 5 15 10 15 6 0 22 11 35 25 33 32 36 123
5 145 -21 15 -28 50 -10 50 6 0 10 16 10 35 0 19 -4 35 -10 35 -5 0 -10 -4
-10 -10z m-70 -105 c0 -14 -9 -35 -20 -47 -11 -12 -20 -28 -20 -35 0 -7 -4
-13 -10 -13 -5 0 -10 -9 -10 -20 0 -13 -7 -20 -20 -20 -13 0 -20 7 -20 20 0
11 -4 20 -10 20 -5 0 -10 9 -10 20 0 11 5 20 10 20 6 0 10 7 10 15 0 26 43 64
73 64 22 1 27 -3 27 -24z m76 -29 c27 -28 10 -106 -23 -106 -5 0 -15 -9 -23
-20 -8 -12 -26 -20 -42 -20 -24 0 -28 4 -28 28 0 16 8 34 20 42 11 8 20 22 20
32 0 10 5 18 10 18 6 0 10 9 10 20 0 24 34 27 56 6z"/>
<path d="M5210 1579 c0 -16 -26 -39 -44 -39 -9 0 -16 -4 -16 -10 0 -5 14 -10
30 -10 l30 0 0 -76 c0 -78 -11 -104 -44 -104 -9 0 -16 -7 -16 -15 0 -12 15
-15 75 -15 60 0 75 3 75 15 0 9 -9 15 -21 15 -41 0 -49 22 -49 139 0 67 -4
111 -10 111 -5 0 -10 -5 -10 -11z"/>
<path d="M5360 1575 c0 -8 -4 -15 -10 -15 -5 0 -10 -18 -10 -41 0 -24 -4 -38
-10 -34 -6 4 -10 -12 -10 -40 0 -28 4 -44 10 -40 6 4 10 -8 10 -29 0 -20 5
-36 10 -36 6 0 10 -7 10 -15 0 -11 12 -15 50 -15 38 0 50 4 50 15 0 8 5 15 10
15 6 0 10 18 10 40 0 22 5 40 10 40 6 0 10 14 10 30 0 17 -4 30 -10 30 -5 0
-10 16 -10 36 0 27 -5 37 -20 41 -11 3 -20 12 -20 19 0 10 -13 14 -40 14 -29
0 -40 -4 -40 -15z m74 -38 c18 -18 23 -35 25 -90 1 -40 -2 -67 -8 -67 -5 0
-13 -9 -16 -20 -4 -11 -15 -20 -27 -20 -11 0 -22 8 -25 20 -3 11 -9 20 -14 20
-5 0 -9 29 -9 65 0 54 4 70 23 90 12 13 23 24 25 24 2 1 13 -9 26 -22z"/>
<path d="M5670 1575 c0 -8 -4 -15 -10 -15 -5 0 -10 -18 -10 -40 0 -22 5 -40
10 -40 18 0 11 -35 -10 -50 -11 -8 -20 -26 -20 -40 0 -14 9 -32 20 -40 11 -8
20 -20 20 -27 0 -9 17 -13 55 -13 42 0 55 3 55 15 0 8 5 15 10 15 6 0 10 9 10
20 0 11 5 20 10 20 16 0 8 33 -12 51 -19 18 -24 49 -8 49 6 0 10 18 10 40 0
22 -4 40 -10 40 -5 0 -10 7 -10 15 0 12 -13 15 -55 15 -42 0 -55 -3 -55 -15z
m80 -35 c0 -11 7 -20 15 -20 8 0 15 -4 15 -10 0 -5 -6 -10 -14 -10 -7 0 -17
-10 -21 -22 -4 -14 -8 -18 -12 -10 -2 6 -11 12 -20 12 -8 0 -21 6 -28 14 -23
22 2 66 38 66 20 0 27 -5 27 -20z m-20 -112 c0 -9 4 -8 10 2 6 10 10 11 10 3
0 -7 7 -13 15 -13 10 0 15 -10 15 -30 0 -20 -5 -30 -15 -30 -8 0 -15 -4 -15
-10 0 -15 -49 -12 -66 4 -28 29 -10 85 29 86 9 0 17 -6 17 -12z"/>
<path d="M960 1460 c0 -13 7 -20 20 -20 13 0 20 7 20 20 0 13 -7 20 -20 20
-13 0 -20 -7 -20 -20z"/>
<path d="M9070 1400 c0 -13 7 -20 20 -20 13 0 20 7 20 20 0 13 -7 20 -20 20
-13 0 -20 -7 -20 -20z"/>
<path d="M810 1390 c0 -5 -7 -10 -15 -10 -25 0 -65 -47 -65 -75 0 -14 11 -37
25 -50 20 -21 34 -25 85 -25 53 0 60 2 60 20 0 11 5 20 10 20 6 0 10 16 10 35
0 19 -4 35 -10 35 -5 0 -10 5 -10 10 0 6 7 10 16 10 18 0 44 -23 44 -39 0 -6
5 -11 10 -11 6 0 10 -13 10 -30 0 -23 4 -30 20 -30 16 0 20 7 20 30 0 17 -4
30 -10 30 -5 0 -10 11 -10 25 0 18 -5 25 -20 25 -11 0 -20 5 -20 10 0 6 -9 10
-20 10 -11 0 -20 5 -20 10 0 6 -25 10 -55 10 -30 0 -55 -4 -55 -10z m70 -75
c0 -33 -4 -45 -15 -45 -8 0 -15 -4 -15 -10 0 -15 -49 -12 -66 4 -17 18 -18 62
-1 81 6 8 31 14 55 15 l42 0 0 -45z"/>
<path d="M5550 1335 c0 -18 5 -25 20 -25 15 0 20 7 20 25 0 18 -5 25 -20 25
-15 0 -20 -7 -20 -25z"/>
<path d="M3750 806 l0 -76 41 0 c22 0 47 -6 55 -14 17 -18 18 -53 2 -69 -17
-16 -78 -22 -78 -8 0 6 -9 11 -20 11 -15 0 -20 -7 -20 -25 0 -24 2 -25 65 -25
51 0 65 3 65 15 0 8 5 15 10 15 6 0 10 9 10 20 0 11 5 20 10 20 6 0 10 12 10
26 0 14 -4 23 -10 19 -5 -3 -10 1 -10 10 0 28 -27 45 -69 45 -39 0 -41 2 -41
30 0 30 1 30 53 30 45 0 53 3 63 24 11 23 11 23 -63 25 l-73 2 0 -75z"/>
<path d="M3953 865 c-7 -8 -13 -23 -13 -35 0 -11 -4 -20 -10 -20 -6 0 -10 -30
-10 -70 0 -40 4 -70 10 -70 6 0 10 -9 10 -20 0 -11 5 -20 10 -20 6 0 10 -7 10
-16 0 -12 9 -14 43 -12 27 2 41 7 40 16 -2 6 2 12 8 12 29 0 39 30 39 114 0
51 -4 86 -10 86 -5 0 -10 7 -10 15 0 8 -7 15 -15 15 -8 0 -15 5 -15 10 0 15
-73 11 -87 -5z m67 -20 c0 -8 5 -15 10 -15 6 0 10 -35 10 -86 0 -85 -10 -114
-40 -114 -30 0 -40 29 -40 114 0 85 0 86 25 86 18 0 23 4 19 15 -4 8 -1 15 5
15 6 0 11 -7 11 -15z"/>
<path d="M9090 855 c0 -23 3 -25 50 -25 53 0 66 -16 36 -46 -8 -8 -22 -14 -30
-14 -9 0 -16 -8 -16 -20 0 -16 7 -20 30 -20 28 0 30 -3 30 -36 0 -19 -6 -42
-14 -50 -17 -16 -66 -19 -66 -4 0 6 -9 10 -20 10 -15 0 -20 -7 -20 -25 0 -24
3 -25 60 -25 47 0 60 3 60 15 0 8 5 15 11 15 21 0 39 29 39 64 0 32 -3 36 -25
36 -18 0 -25 5 -25 20 0 11 5 20 11 20 16 0 39 26 39 44 0 9 -4 16 -10 16 -5
0 -10 7 -10 15 0 8 -7 15 -15 15 -8 0 -15 5 -15 10 0 6 -22 10 -50 10 -47 0
-50 -2 -50 -25z"/>
<path d="M9333 865 c-7 -8 -13 -19 -13 -25 0 -5 -4 -10 -10 -10 -5 0 -10 -4
-10 -10 0 -5 9 -10 20 -10 19 0 20 -7 20 -90 0 -83 -1 -90 -20 -90 -11 0 -20
-7 -20 -15 0 -12 13 -15 60 -15 47 0 60 3 60 15 0 8 -9 15 -20 15 -19 0 -20 7
-20 109 0 60 -3 116 -6 125 -8 20 -25 20 -41 1z"/>
</g>
</svg>
