<svg width="1042" height="1042" viewBox="0 0 1042 1042" fill="none" xmlns="http://www.w3.org/2000/svg">
<rect x="15" y="15" width="1012" height="1012" rx="50" fill="white" stroke="#D9D9D9" stroke-width="30"/>
<path d="M180.504 565.885C184.163 561.413 190.657 560.534 195.373 563.872L568.032 827.646C573.703 831.661 574.279 839.862 569.224 844.628L380.678 1022.42C378.637 1024.34 375.937 1025.41 373.132 1025.41H62.2395C59.8147 1025.41 57.4577 1024.61 55.5353 1023.13L11.7957 989.508C9.08729 987.426 7.5 984.203 7.5 980.787V781.28C7.5 778.74 8.3784 776.279 9.98617 774.314L180.504 565.885Z" fill="#D9D9D9"/>
<path d="M727.245 390.991C731.031 386.525 737.651 385.807 742.307 389.358L1030.95 609.516C1033.8 611.691 1035.41 615.119 1035.27 618.702L1019.92 1002.18C1019.68 1008.02 1014.92 1012.66 1009.08 1012.74L323.662 1022.22C316.975 1022.31 311.754 1016.47 312.598 1009.83L331.588 860.511C331.857 858.399 332.733 856.41 334.109 854.786L727.245 390.991Z" fill="#D9D9D9"/>
<ellipse cx="206.5" cy="252.583" rx="86.5" ry="130.438" fill="#D9D9D9"/>
</svg>
