<svg width="1728" height="314" viewBox="0 0 1728 314" fill="none" xmlns="http://www.w3.org/2000/svg">
<path d="M323.243 116.452C149.36 131.204 -31.9826 92.2031 -102 64.923V-25H2118L2117.36 311.454C2110.93 311.79 2096.8 317.011 2040.27 311.454C1982.89 305.813 1780.12 240.222 1695.97 214.458C1613.58 189.232 1467.93 186.673 1380.57 219.51C1293.21 252.347 1250.17 285.184 1026.63 306.402C803.087 327.62 543.573 97.7601 323.243 116.452Z" fill="#F6D047"/>
<path d="M331 84.7043C195.653 93.5378 54.5 70.1835 0 53.8477V0H1728L1727.5 201.475C1722.5 201.677 1711.5 204.803 1667.5 201.475C1622.84 198.097 1465 158.821 1399.5 143.392C1335.37 128.287 1222 126.754 1154 146.417C1086 166.081 1052.5 185.744 878.5 198.45C704.5 211.156 502.5 73.5112 331 84.7043Z" fill="url(#paint0_linear_2_83)"/>
<defs>
<linearGradient id="paint0_linear_2_83" x1="2052" y1="29.344" x2="150.136" y2="-50.7274" gradientUnits="userSpaceOnUse">
<stop stop-color="#F6D047"/>
<stop offset="1" stop-color="#F6B047"/>
</linearGradient>
</defs>
</svg>
