<svg width="1728" height="1560" viewBox="0 0 1728 1560" fill="none" xmlns="http://www.w3.org/2000/svg">
<path d="M850.5 351.023C1054.5 177.791 1551 113.996 1728 117.108V1172.06C1717.67 1183.99 1614.42 1213.38 1563 1269.05C1425.5 1417.91 1460.5 1399.23 1099 1447.99C908.297 1473.71 770.5 1619.14 388 1533.05C82 1464.17 79.5 1125.73 0 951.631V490.543C17 511.635 88.1 558.695 236.5 578.196C422 602.573 526.753 625.943 850.5 351.023Z" fill="url(#paint0_linear_141_2)"/>
<path d="M847.273 237.655C1190 205 1585.47 -3.05052 1772 0.109724V1071.43C1761.11 1083.55 1652.31 1113.4 1598.12 1169.93C1453.22 1321.09 1294.62 1270 1109.15 1351.64C923.675 1433.28 1008.51 1552.84 605.422 1465.41C282.953 1395.46 34.7786 1024.38 -49 847.581V379.339C-31.0851 400.758 43.8415 448.548 200.228 468.352C395.712 493.108 545.075 266.448 847.273 237.655Z" fill="url(#paint1_linear_141_2)"/>
<defs>
<linearGradient id="paint0_linear_141_2" x1="1597.07" y1="100.554" x2="-759.3" y2="1368.63" gradientUnits="userSpaceOnUse">
<stop stop-color="#F7BF47"/>
<stop offset="1" stop-color="#F7BF47" stop-opacity="0"/>
</linearGradient>
<linearGradient id="paint1_linear_141_2" x1="1711.5" y1="136.5" x2="-331.18" y2="1097.68" gradientUnits="userSpaceOnUse">
<stop stop-color="#F6D047"/>
<stop offset="1" stop-color="#F7BF47" stop-opacity="0"/>
</linearGradient>
</defs>
</svg>
