<svg width="1728" height="421" viewBox="0 0 1728 421" fill="none" xmlns="http://www.w3.org/2000/svg">
<path d="M1096.41 167.101C1230.21 167.101 1462.43 176.987 1558 214C1558 214 1604 228.5 1648.5 307C1693 385.5 1729 421 1729 421H0V0C180.077 25.5 104.045 139.5 565.575 101.5C828.687 79.8368 929.163 167.101 1096.41 167.101Z" fill="url(#paint0_linear_13_383)" fill-opacity="0.69"/>
<path d="M1096.41 167.101C1230.21 167.101 1462.43 176.987 1558 214C1558 214 1604 228.5 1648.5 307C1693 385.5 1729 421 1729 421H0V0C180.077 25.5 104.045 139.5 565.575 101.5C828.687 79.8368 929.163 167.101 1096.41 167.101Z" fill="#F6D047" fill-opacity="0.2"/>
<defs>
<linearGradient id="paint0_linear_13_383" x1="39.2684" y1="38" x2="1481.17" y2="718.564" gradientUnits="userSpaceOnUse">
<stop stop-color="#F6D047"/>
<stop offset="1" stop-color="white" stop-opacity="0"/>
</linearGradient>
</defs>
</svg>
