<svg width="1728" height="1016" viewBox="0 0 1728 1016" fill="none" xmlns="http://www.w3.org/2000/svg">
<path d="M143.226 778.241C37.9084 793.933 -48.814 838.351 -79.0104 858.599L-94 870.621V963H2158.35L2159 89.1917C2154.44 84.7626 2151.47 80.3334 2134.23 66.4132C2083.83 25.7072 1959.18 -38.4944 1863.77 30.3473C1744.51 116.399 1726.91 351.777 1535.3 426.44C1343.7 501.103 1224.43 365.697 1004.8 506.797C785.172 647.898 842.523 778.241 631.366 858.599C420.208 938.956 274.874 758.626 143.226 778.241Z" fill="#F6B047"/>
<path d="M182 870C101.2 882.4 34.6667 917.5 11.5 933.5L0 943V1016H1728L1728.5 325.5C1725 322 1722.72 318.5 1709.5 307.5C1670.83 275.333 1575.2 224.6 1502 279C1410.5 347 1397 533 1250 592C1103 651 1011.5 544 843 655.5C674.5 767 718.5 870 556.5 933.5C394.5 997 283 854.5 182 870Z" fill="url(#paint0_linear_101_3)"/>
<defs>
<linearGradient id="paint0_linear_101_3" x1="1667" y1="297" x2="83.4999" y2="999.5" gradientUnits="userSpaceOnUse">
<stop stop-color="#F6D047"/>
<stop offset="1" stop-color="#F6B047"/>
</linearGradient>
</defs>
</svg>
